<svg width="228" height="144" viewBox="0 0 228 144" fill="none" xmlns="http://www.w3.org/2000/svg">
<path fill-rule="evenodd" clip-rule="evenodd" d="M166.877 116.363C165.773 117.64 164.143 118.587 162.892 119.755C161.579 120.981 160.153 122.052 158.845 123.263C153.075 116.21 145.169 111.885 138.321 106.033C135.075 103.258 132.683 99.4941 130.932 95.6315C130.035 93.6513 129.372 91.6132 128.853 89.5037C128.619 88.5535 128.391 87.6066 128.238 86.6435C128.053 85.477 128.005 85.3776 127.218 84.4673C126.88 84.0755 126.223 82.9309 125.56 83.057C125.001 83.1633 123.98 84.8629 123.627 85.2828C121.93 87.3021 120.285 89.3827 118.499 91.3238C115.765 94.294 113.277 97.2168 110.739 100.365C105.547 106.805 99.947 112.868 94.296 118.929C93.8769 119.378 92.8996 120.696 92.2975 120.873C91.5653 121.088 90.3754 120.19 89.6381 119.688C87.8583 118.477 86.4556 116.977 84.9341 115.475C81.9651 112.545 79.9546 108.431 78.6022 104.517C77.7926 102.174 77.2662 99.7456 76.4307 97.4108C76.0824 96.4377 75.2931 95.2417 75.6939 94.3942C75.8131 94.1415 76.5727 93.4702 76.8405 93.4189C77.1572 93.358 77.6853 93.7923 77.7953 93.7622C78.8461 93.4746 78.263 92.3746 78.8882 91.7828C79.2425 91.447 81.0448 91.4961 81.5829 91.3116C83.5504 90.6366 85.3156 89.3492 87.1755 88.5807C94.9622 85.3637 102.844 82.2344 109.566 76.981C111.309 75.6188 112.468 74.5951 114.548 73.7146C116.65 72.8248 118.763 72.0311 120.908 71.2547C122.8 70.5697 124.703 69.9275 126.658 69.4365C128.772 68.9055 131.771 68.2322 133.883 68.9162C138.031 70.2591 139.37 73.6767 141.022 77.282C143.257 82.1598 145.959 86.7757 148.888 91.2654C154.524 99.9037 161.378 107.655 166.877 116.363Z" fill="#060A6E"/>
<path fill-rule="evenodd" clip-rule="evenodd" d="M41.9599 39.9957C41.7316 39.8799 39.9496 40.6052 39.6505 40.7161C38.4557 41.1594 37.3303 41.896 36.2047 42.4952C37.0674 43.5451 37.9303 44.5952 38.7927 45.6453C39.6383 43.5712 40.725 41.8598 41.9599 39.9957ZM42.5481 52.9001C42.2546 52.9331 44.7326 58.8879 45.0219 59.5565C46.0749 61.9883 47.1805 64.3964 48.2475 66.8222C49.2812 69.1728 50.5925 71.3353 51.9136 73.5313C53.0437 75.4094 54.2059 78.3238 55.9105 79.7149C54.8342 74.9402 54.976 69.4502 51.889 65.4412C48.6891 61.285 45.5253 57.2266 42.5481 52.9001ZM166.877 116.576C162.095 109.003 156.109 102.305 151.123 94.8678C148.331 90.7036 145.613 86.4861 143.263 82.0536C141.554 78.8292 140.491 74.2288 137.851 71.7637C136.687 70.6777 135.444 69.6147 133.883 69.1281C131.746 68.4624 128.805 69.1222 126.658 69.6486C122.658 70.6293 118.751 72.1523 114.962 73.7518C111.12 75.3739 107.841 78.2879 104.369 80.6291C100.644 83.1408 96.6125 84.9705 92.4395 86.5721C88.8061 87.9668 85.5737 89.969 81.9595 91.3727C81.2394 91.6525 79.7697 91.6115 79.1656 91.9763C78.5145 92.369 78.7709 93.5289 77.9806 93.9568C77.624 94.1498 77.5053 93.4499 77.2316 93.4614C76.8968 93.4753 76.5915 93.8683 76.2689 94.1171C74.9554 95.1305 75.7601 95.8062 76.2802 97.2007C77.9754 101.744 78.8865 106.367 81.2667 110.656C83.2237 114.182 86.0246 117.341 89.3222 119.675C89.8239 120.031 91.459 121.407 92.0478 121.315C92.5778 121.233 93.6563 119.824 94.0223 119.441C95.6829 117.705 97.2007 115.837 98.8603 114.097C101.425 111.41 103.894 108.65 106.382 105.925C109.271 102.762 111.828 99.1782 114.43 95.7986C115.627 94.2439 117.168 92.9775 118.499 91.5359C120.288 89.5975 121.93 87.5137 123.628 85.4949C124.141 84.884 125.001 83.3212 125.799 83.3395C126.358 83.3524 127.344 84.6689 127.636 85.0814C128.723 86.6149 128.719 89.3842 129.259 91.2984C130.578 95.966 132.957 100.525 136.219 104.127C139.463 107.709 143.618 110.256 147.455 113.135C151.611 116.254 155.549 119.446 158.845 123.475C160.153 122.264 161.579 121.193 162.892 119.967C164.143 118.799 165.773 117.852 166.877 116.576ZM105.325 137.998C106.255 138.007 107.829 138.579 108.661 138.235C106.194 135.505 103.929 133.163 100.808 131.163C97.569 129.087 94.341 127.03 91.1954 124.816C84.8559 120.354 80.1932 115.063 77.5451 107.632C76.8633 105.719 76.4065 103.712 75.9068 101.745C75.638 100.685 75.1028 95.7295 74.1939 95.3016C73.6556 95.0479 69.6038 97.8957 68.9618 98.2505C67.4608 99.0807 65.9542 99.7243 64.4024 100.374C61.0669 101.771 57.6282 102.836 54.0911 103.725C49.8504 104.791 46.9618 103.027 44.3347 99.694C41.3543 95.9125 38.8775 91.6459 36.1524 87.6748C34.9132 85.8686 33.8866 84.0653 32.9714 82.0731C32.3724 80.7696 29.9968 77.2527 30.8176 75.8639C33.1595 77.6469 34.0021 81.1921 35.5974 83.5795C37.5857 86.5548 39.8264 89.36 41.825 92.3326C43.5056 94.8321 45.2201 97.8612 47.703 99.6581C49.887 101.239 51.9618 100.753 54.3122 100.042C57.1609 99.1816 60.1138 98.7573 62.9056 97.6897C65.9268 96.5345 68.7853 94.8957 71.733 93.5594C73.1072 92.9362 74.7526 92.5821 76.0475 91.8053C77.1636 91.1361 76.9972 90.7828 77.0791 89.3578C77.1749 87.6953 77.2851 86.0316 77.3586 84.3676C77.408 83.2495 76.8034 81.7337 77.2137 80.8991C73.8672 81.4793 70.5964 82.2564 67.2734 82.9438C65.454 83.3202 63.6996 83.7855 61.8616 84.0812C61.1609 84.1938 60.2032 84.1907 59.5759 84.4959C59.0754 84.3522 58.8203 84.4436 58.8105 84.7698C58.7866 84.947 58.7487 85.1217 58.6966 85.2935C57.6705 85.7603 57.0737 84.7591 56.1837 83.7987C55.0854 82.6134 54.2631 81.2786 53.4574 79.8859C51.6558 76.772 49.5793 73.8434 47.9122 70.6418C46.213 67.3781 44.833 63.8837 43.3924 60.4976C42.0708 57.3911 41.2245 54.0314 39.7641 50.9984C39.1124 49.6445 38.2864 48.525 37.3218 47.3813C36.5258 46.4375 35.3013 44.4016 34.1126 43.9681C33.7983 43.8535 32.9753 44.046 32.6182 44.0206C31.9066 43.9698 31.2724 43.7086 30.5442 43.7657C28.9674 43.8892 27.2485 44.8862 25.9885 45.7628C26.8027 46.4886 28.8396 47.3708 27.3765 48.6782C25.9567 49.9475 25.1725 47.6707 24.6307 46.6731C22.0794 48.7682 22.4482 51.657 22.1534 54.6171C21.9995 56.1626 21.5945 57.6846 21.3333 59.2068C21.1451 60.3024 21.2771 61.4356 21.2233 62.5541C21.0862 65.3964 20.8006 68.1171 20.8145 70.9197C20.8291 73.9153 21.0332 76.8082 21.2729 79.7821C21.6764 84.7889 22.6009 89.7974 23.3937 94.7644C23.8396 97.5565 24.4501 100.269 25.0427 103.016C25.7153 106.133 26.9594 109.086 27.6571 112.196C28.368 111.292 28.9027 111.288 30.0525 111.407C30.9369 111.5 31.531 111.289 31.4792 112.517C31.4457 113.313 30.7434 113.921 29.9662 114.06C28.9528 114.241 28.6085 113.735 28.0862 112.968C27.964 114.421 28.9415 115.941 29.3281 117.361C29.694 118.706 29.9364 120.025 30.5513 121.312C31.1512 122.568 31.6649 123.807 32.2719 125.052C32.5515 125.624 32.813 126.205 33.0957 126.776C33.2387 127.065 33.4071 127.464 33.6204 127.707C34.1209 128.278 34.0412 128.002 34.627 128.327C35.9032 129.036 35.4239 128.859 35.4538 130.323C35.4828 131.767 36.2233 132.828 37.4107 133.64C39.93 135.362 42.4149 135.841 45.279 136.711C47.9476 137.522 50.7585 138.218 53.5842 138.202C57.0451 138.183 60.4601 137.729 63.921 137.683C67.7391 137.632 71.594 137.653 75.4043 137.785C76.974 137.839 78.4317 137.909 79.9471 138.31C81.7069 138.776 83.4092 138.591 85.223 138.52C89.0925 138.37 93.0954 138.07 96.9143 138.043C99.6641 138.024 102.565 137.832 105.325 137.998ZM205.664 139.498C206.352 139.861 207.894 139.712 208.586 139.611C209.804 139.433 209.935 138.951 210.708 137.864C212.038 135.994 213.118 134.202 213.901 132.035C215.399 127.888 216.011 123.645 216.668 119.306C217.399 114.486 216.064 109.489 215.587 104.701C215.477 103.603 215.327 102.514 215.154 101.424C215.05 100.772 215.023 98.555 214.594 97.9907C213.77 96.9067 209.938 97.7811 208.431 97.8793C204.226 98.154 199.993 98.2182 195.79 98.2659C193.549 98.2913 191.295 98.3852 189.076 98.4025C188.057 98.4106 187.061 98.36 186.038 98.2608C185.696 98.2278 185.362 98.1491 185.017 98.13C183.837 98.0648 183.926 97.8937 183.621 98.9384C183.087 100.769 183.498 103.098 183.357 104.997C183.17 107.536 183.068 110.11 183.115 112.654C183.158 115.005 183.078 117.351 183.165 119.707C183.202 120.683 183.309 121.478 183.566 122.41C183.857 123.464 184.177 125.925 184.902 126.654C184.984 126.737 185.6 126.543 185.764 126.75C186.016 127.069 185.97 127.742 186.143 127.948C186.703 128.614 187.86 128.667 188.699 128.966C191.002 129.788 193.115 130.68 195.286 131.787C197.226 132.777 200.353 133.619 201.519 135.571C202.054 136.466 202.126 137.646 202.618 138.569C203.178 139.621 202.057 139.071 203.429 139.498C204.047 139.69 205.031 139.498 205.664 139.498ZM1.17912 127.602C1.00464 130.031 -0.363639 132.344 -0.839934 134.732C-1.06281 135.851 -1.44086 136.95 -1.70284 138.062C-1.95406 139.128 -2.86168 140.391 -2.76979 141.446C0.580152 140.253 3.97335 139.953 7.47457 139.631C10.793 139.325 14.2986 139.204 17.5892 139.203C20.9423 139.201 24.5276 138.873 27.9802 138.823C31.5909 138.77 35.2561 138.676 38.8145 138.302C36.9538 136.923 34.6256 135.629 33.2517 133.712C31.758 131.628 30.9824 129.016 29.6681 126.817C27.0307 122.403 25.3541 116.926 23.9716 111.967C21.1806 101.957 18.0616 92.1317 17.3098 81.7486C15.8792 82.4812 14.7436 85.3236 14.0273 86.739C13.1131 88.5462 12.6344 90.5052 12.0401 92.426C10.8162 96.3822 9.96919 100.484 8.47066 104.403C5.60654 111.894 3.76563 119.965 1.17912 127.602ZM183.024 69.2596C183.644 73.7366 184.943 78.2716 184.993 82.8026C185.004 83.7994 184.835 84.9064 185.043 85.8893C185.265 86.9387 185.986 87.8663 186.403 88.8637C187.064 90.4467 188.739 93.6916 187.124 95.033C187.091 93.76 185.926 92.1435 185.339 91.0303C184.455 89.3532 183.293 87.8197 182.334 86.184C180.327 82.7605 178.079 79.4104 175.492 76.3923C172.973 73.4524 170.07 70.8446 167.399 68.0453C166.596 67.2041 160.158 59.1086 159.902 59.2217C161.899 66.9231 165.294 73.624 169.94 80.0721C172.218 83.2332 174.952 85.3133 177.725 87.9912C180.034 90.2214 184.386 92.6061 183.587 96.2603C187.197 95.9133 190.783 95.3588 194.426 95.3588C193.827 90.7486 193.368 86.2114 192.299 81.677C191.084 76.5281 190.262 71.2254 189.235 66.0309C188.186 60.7278 186.408 55.5939 185.302 50.3009C184.242 45.2325 183.332 40.1731 182.556 35.0483C181.914 37.8879 182.151 41.0069 181.923 43.9043C181.69 46.8645 181.713 49.7701 181.79 52.7476C181.934 58.2782 182.523 63.742 183.024 69.2596ZM198.666 42.8916C198.686 40.5243 199.145 38.189 199.287 35.8273C199.33 35.1028 200.052 30.1592 199.379 29.9011C198.825 31.1079 198.696 32.6521 198.193 33.9182C197.691 35.1832 197.019 36.3882 196.538 37.6619C195.494 40.4212 195.133 43.5434 195.021 46.4769C194.767 53.1123 194.635 59.7327 195.081 66.3681C195.272 69.2122 195.419 72.0611 195.367 74.9109C195.309 78.0465 194.829 80.7681 195.412 83.8781C195.989 86.9577 196.352 90.0247 196.544 93.1493C196.679 95.3424 196.733 95.1872 198.826 95.033C200.336 94.9216 201.862 95.0406 203.374 94.9714C202.667 86.424 202.551 77.859 201.422 69.3444C200.845 65.0005 200.83 60.5939 200.114 56.2662C199.758 54.1164 199.161 52.0099 198.818 49.8576C198.45 47.5468 198.631 45.2203 198.666 42.8916ZM45.6585 37.5126C49.6866 37.8615 53.9713 39.0658 58.1001 38.2706C57.4195 37.995 55.6385 37.6147 56.44 36.5267C57.255 35.4204 58.6285 36.8237 59.4413 36.6788C59.9425 36.5893 61.05 34.4942 61.3589 34.0605C62.06 33.0746 62.1446 32.9029 63.4053 32.6502C64.6267 32.4058 64.9036 32.6704 65.0583 31.4561C65.236 30.0597 64.7528 28.4899 64.8007 27.062C64.9036 23.9879 65.8953 21.2922 66.8183 18.3999C62.8968 19.2531 59.0622 20.2648 55.0524 20.8146C53.3384 21.0497 50.6717 21.592 49.1145 20.4268C48.7096 20.1238 48.7744 19.7147 48.443 19.3635C47.8873 18.7743 46.8565 18.1649 46.0684 17.997C41.2182 16.9645 40.745 23.8787 43.1756 26.4659C43.7844 27.1143 44.6314 27.4344 45.2548 28.0285C46.0869 28.8207 46.1551 29.6553 46.2766 30.8647C46.5043 33.1326 46.1949 35.4092 45.2274 37.4837L45.6585 37.5126ZM104.516 70.1543C105.948 70.426 107.442 70.3639 108.878 70.5958C109.388 70.6782 110.917 70.9656 111.365 70.6675C112.05 70.2122 112.293 68.5423 112.617 67.7647C113.187 66.3969 113.992 65.2039 114.535 63.8112C116.754 58.1225 118.823 52.4111 121.507 46.9168C120.479 46.6494 119.689 46.6389 118.652 46.5008C117.572 46.3569 116.593 45.7183 115.563 45.4439C114.584 45.1831 113.558 45.2496 112.588 44.9463C112.053 44.7794 111.594 44.4082 111.068 44.2784C110.228 44.0719 109.247 43.9512 108.748 44.5025C108.236 45.068 108.056 46.6186 107.778 47.3491C107.036 49.2951 106.174 51.1731 105.552 53.1638C104.992 54.9593 104.459 56.7357 103.965 58.5475C103.444 60.4602 102.416 62.0367 101.79 63.8639C101.313 65.2547 100.864 66.6765 100.793 68.1594C100.724 69.6064 100.513 69.6985 101.96 69.9297C102.69 70.0462 103.829 70.4803 104.516 70.1543ZM198.722 137.876C199.094 138.049 199.446 138.026 199.776 137.806C196.543 136.441 193.398 134.547 190.025 133.61C186.861 132.731 183.786 131.681 180.738 130.599C178.261 129.72 176.034 129.035 173.795 127.488C172.436 126.549 171.228 125.492 170.294 124.12C169.254 122.591 169.023 120.416 167.897 119.04C166.377 120.709 164.591 121.974 162.793 123.3C162.171 123.759 160.678 124.76 160.465 125.47C160.197 126.366 160.916 127.223 161.272 128.13C162.183 130.453 162.629 132.774 163.123 135.189C163.321 136.156 163.749 137.611 164.544 138.017C165.268 138.385 167.364 138.117 168.265 138.049C172.964 137.693 177.58 137.328 182.308 137.652C187.658 138.019 193.386 138.273 198.722 137.876ZM208.108 94.8375C208.962 94.8404 209.796 94.7336 210.647 94.7336C210.156 92.4401 211.304 89.4724 211.712 87.1831C212.167 84.6222 212.514 81.9741 212.818 79.3928C213.458 73.9556 213.748 68.5844 213.756 63.1073C213.764 57.8075 214.729 52.9644 216.08 47.8696C217.531 42.398 219.908 37.4774 221.873 32.2005C219.717 33.3398 218.524 36.0057 217.392 38.0439C215.96 40.6208 215.007 43.4742 214.422 46.3671C213.294 51.948 212.057 57.5458 210.756 63.1174C209.401 68.9187 208.604 74.7733 207.052 80.5272C206.295 83.3331 205.266 86.7852 205.208 89.6789C205.185 90.8759 204.824 93.3827 205.366 94.4223C205.874 95.3949 206.996 94.9367 208.108 94.8375ZM79.1856 87.6396C79.1406 88.2354 79.0981 88.8021 78.9923 89.3905C80.1753 89.3793 81.6736 88.1518 82.6883 87.6007C83.9244 86.9294 85.1619 86.1889 86.3708 85.5142C88.7047 84.2112 91.3542 83.3527 93.8461 82.2823C96.7088 81.0526 99.34 79.5668 102.078 78.0863C103.034 77.5692 109.906 74.5902 109.791 73.7764C108.282 73.7261 106.773 73.676 105.264 73.6259C103.971 73.5829 101.967 73.8752 100.729 73.4754C100.05 73.2562 99.2885 72.4495 99.0323 71.8177C98.7789 71.1926 99.3486 68.3175 99.0174 68.1342C97.3288 69.8583 96.267 72.1499 94.7572 74.0098C93.0888 76.0655 90.9329 77.2659 88.5568 78.3583C85.9329 79.5648 83.2171 80.4991 80.5356 81.533C79.4046 81.969 79.427 82.2185 79.3286 83.4585C79.2184 84.8444 79.2303 86.25 79.1856 87.6396ZM215.536 139.78C218.38 140.085 221.295 139.911 224.162 140.15C225.205 140.236 226.651 140.365 225.602 141.765C224.941 142.647 222.824 142.364 221.864 142.425C219.286 142.589 216.556 142.501 213.973 142.463C213.429 142.455 212.827 142.293 212.278 142.329C211.643 142.371 210.883 142.828 210.304 142.824C209.948 142.822 209.82 142.446 209.513 142.411C208.843 142.336 208.173 142.281 207.498 142.281C197.285 142.284 187.213 142.078 177.026 142.067C172.154 142.062 167.205 141.978 162.336 141.749C161.313 141.701 155.49 141.911 155.652 140.069C155.734 139.121 157.635 138.987 158.328 138.887C158.842 138.812 159.376 138.824 159.891 138.796C161.259 138.723 161.858 139.052 161.569 137.555C160.475 131.878 158.513 127.186 154.323 123.104C150.896 119.766 146.77 116.738 142.889 113.951C138.176 110.566 134.353 107.006 131.555 101.827C129.921 98.8028 128.553 95.7107 127.714 92.3666C127.412 91.1635 127.405 89.7952 127.035 88.6354C126.75 87.7424 126.101 87.1176 125.719 86.1926C121.03 94.024 114.816 100.576 109.118 107.637C106.395 111.01 103.289 114.215 100.036 117.149C99.071 118.02 98.1702 118.93 97.2691 119.867C96.5155 120.651 95.319 121.348 94.6826 122.219C94.0722 123.053 94.2225 123.014 95.1516 123.677C96.3799 124.553 97.7335 125.281 98.981 126.135C100.975 127.501 103.152 128.655 104.935 130.299C106.863 132.076 108.548 134.135 110.233 136.14C111.357 137.476 112.831 139.19 113.113 140.879C113.207 141.438 113.562 142.82 113.093 143.23C112.693 143.579 112.733 143.447 112.235 143.233C111.583 142.954 111.392 142.312 110.595 142.007C108.557 141.225 106.091 141.493 103.971 141.484C101.85 141.474 99.7107 141.712 97.5905 141.704C92.7489 141.684 88.0104 142.076 83.1702 142.286C78.0294 142.509 72.8256 141.973 67.702 142.049C63.9058 142.106 60.0085 141.822 56.1074 142.033C54.1008 142.141 52.1302 141.89 50.1737 141.862C47.6121 141.825 44.9813 142.173 42.3978 142.223C38.1573 142.305 33.9687 142.304 29.7023 142.406C20.5254 142.626 11.3981 142.853 2.21578 142.998C0.990953 143.018 -0.349954 142.976 -1.56036 143.114C-2.84506 143.26 -2.18182 143.533 -3.06329 143.996C-5.53103 145.291 -4.96114 140.492 -4.902 139.548C-4.5848 134.49 -3.30083 129.53 -1.75782 124.728C-0.293992 120.174 0.894424 115.408 2.13416 110.756C3.49119 105.663 5.25928 100.78 6.86485 95.7378C8.51 90.5711 9.84944 85.2031 12.8375 80.6232C13.5181 79.5802 14.2214 78.4578 15.3162 77.8001C16.5435 77.0629 16.5963 77.4934 16.5953 76.1442C16.5945 74.8735 16.6727 73.1758 16.3729 71.9632C16.1019 70.8676 16.1437 71.5172 15.5335 70.7303C15.0369 70.0902 14.5173 69.6528 14.161 68.8757C11.9724 71.0949 6.96235 69.9238 4.84774 68.3258C2.25952 66.3698 0.288119 63.07 -0.434265 59.9272C-1.01442 57.4035 -0.302544 52.5929 2.49071 51.3794C3.85239 50.7877 8.85384 50.3405 9.05399 48.4124C9.15712 47.417 7.39686 46.0174 6.9907 45.1616C6.23801 43.5761 5.51514 41.4671 5.30595 39.7291C4.89735 36.3366 6.43743 32.5431 8.89075 30.2516C13.3912 26.0478 21.3098 23.8904 27.0989 26.5576C25.8756 21.8843 25.1371 17.8528 25.7531 12.9916C26.2839 8.80367 28.7548 6.46057 32.1549 4.37455C37.9569 0.814363 45.8469 -0.590815 52.4811 0.444374C53.9887 0.679711 55.4354 1.18435 56.8313 1.58587C58.8591 2.1692 61.2868 1.97492 63.2015 2.92269C64.5898 3.60964 65.6441 4.97816 66.8633 5.8919C68.2868 6.95861 69.4696 8.55074 70.4586 10.0231C72.5737 13.1717 71.7472 19.0153 69.9769 22.1758C69.5974 22.8537 69.1284 23.4244 68.5004 23.887C67.8464 24.3684 66.8496 24.5182 66.5126 25.1426C65.6495 26.7421 66.4821 30.2047 66.5972 31.9334C66.7313 33.9407 65.7164 35.4486 63.4403 35.6086C62.1236 35.7015 62.0815 34.9376 61.451 36.5094C61.0424 37.5282 60.6712 38.6382 60.0815 39.5722C58.8657 41.4972 56.639 41.3092 54.6106 41.2572C52.2626 41.1966 49.9498 40.8256 47.6006 40.5915C48.2211 42.5795 49.9195 44.1225 50.9801 45.8935C52.4141 48.2889 53.2773 50.2745 53.5104 53.0653C53.6893 55.2095 53.3032 56.9028 51.8359 58.4986C51.2287 59.1592 50.6903 59.1917 50.8411 59.9536C50.933 60.4184 51.7367 61.1853 52.0212 61.5563C52.7736 62.5377 53.6473 63.4385 54.3095 64.4866C56.8579 68.5194 57.6106 74.667 57.617 79.3615C57.6172 79.5768 57.7321 80.0345 57.637 80.2571C57.5666 80.4216 57.0319 80.9424 57.0241 80.9871C56.9195 81.5907 57.508 82.6254 58.4315 82.7278C59.4014 82.8351 61.1778 82.0257 62.0801 81.7598C63.5238 81.3341 64.9955 81.0198 66.4361 80.5826C68.7628 79.8766 71.0788 79.3136 73.4442 78.7603C74.5131 78.5106 75.5879 78.3023 76.6602 78.0687C77.8816 77.8028 78.449 77.2889 79.0795 78.5316C79.6204 79.598 79.2841 79.7913 80.5942 79.2539C81.895 78.72 83.166 78.0582 84.4361 77.4556C86.6761 76.393 89.3437 75.4458 91.276 73.8771C94.4991 71.2601 95.6927 67.0924 98.7775 64.3156C99.6365 63.5423 100.149 63.5287 100.692 62.4576C101.273 61.3112 101.573 59.841 101.879 58.6078C102.414 56.4485 102.795 54.2816 103.281 52.1242C103.885 49.4366 105.193 47.0025 106.146 44.439C106.518 43.4402 106.711 42.1707 107.31 41.2731C107.469 41.035 107.773 40.9009 107.896 40.7039C108.323 40.0277 108.319 39.842 108.429 39.0285C108.946 35.2271 111.215 37.2269 113.694 38.0986C114.739 38.4659 119.7 40.8479 117.806 42.4319C120.064 43.0871 123.68 42.731 123.65 45.9671C123.634 47.6252 122.643 49.3989 122.11 50.951C121.637 52.329 121.18 53.7125 120.7 55.0883C119.648 58.1022 118.372 61.026 117.345 64.0492C116.877 65.427 116.491 66.8371 115.84 68.1374C115.265 69.2845 113.874 70.5489 113.645 71.8033C119.662 69.2361 125.229 65.5245 131.964 65.7611C134.913 65.8644 137.589 67.1042 139.218 69.6973C141.26 72.9475 142.604 76.5866 144.6 79.8669C151.86 91.7996 160.52 102.64 168.491 114.079C169.103 114.958 169.89 115.789 170.103 116.876C170.241 117.584 169.973 118.293 170.139 118.974C170.484 120.389 172.226 122.156 173.407 122.969C175.672 124.527 179.353 126.726 182.178 126.531C180.405 122.269 180.429 117.599 180.511 113.053C180.589 108.735 181.056 104.451 181.61 100.177C181.736 99.2102 181.845 98.3138 182.123 97.3766C182.442 96.3013 182.879 96.4032 181.924 95.4367C180.454 93.9484 178.705 92.7239 177.223 91.217C174.018 87.9585 170.732 85.4045 168.209 81.5132C165.81 77.8121 163.279 74.004 161.502 69.9509C159.674 65.7787 158.943 61.3229 158.035 56.9043C157.667 55.1113 156.324 53.1096 156.594 51.2371C156.935 48.8708 158.032 50.5939 158.479 51.8674C159.842 55.7547 163.034 59.2339 165.678 62.3603C168.534 65.7376 172.027 68.5633 175.009 71.8424C178.255 75.4138 180.479 79.5181 183.366 83.3304C183.366 78.5993 181.751 73.7816 181.09 69.1012C180.509 64.9817 180.326 60.8493 179.959 56.712C179.124 47.3136 179.845 37.6384 181.017 28.3073C181.573 23.8757 181.258 19.5485 181.274 15.1018C181.28 13.6866 180.694 10.4249 181.441 9.16902C182.87 6.7636 183.704 12.0234 183.777 12.8076C184.209 17.4791 183.434 22.0986 183.83 26.7501C184.244 31.6076 185.142 36.3288 185.907 41.1301C186.735 46.3288 188.083 51.4102 189.374 56.5091C190.729 61.8627 191.869 67.328 193.376 72.6389C193.782 70.9695 193.212 68.9187 193.099 67.2185C192.939 64.7855 192.625 62.352 192.597 59.9126C192.554 56.0248 192.524 52.0648 192.744 48.1951C192.96 44.3808 192.895 40.384 194.065 36.7093C194.62 34.9652 195.434 33.2636 196.231 31.6206C197.214 29.5947 197.561 27.6304 198.105 25.4757C198.572 23.6304 199.254 21.8337 199.565 19.9515C199.758 18.7809 200.297 15.3254 201.637 17.9434C202.415 19.463 202.079 21.7157 202.1 23.3481C202.128 25.441 201.808 27.4759 201.759 29.56C201.663 33.6489 201.594 37.733 201.29 41.8151C200.97 46.0979 201.249 49.9361 202.064 54.156C202.955 58.7752 203.216 63.4045 203.679 68.0802C203.917 70.4944 204.319 72.8952 204.513 75.3129C204.615 76.5932 204.089 80.2645 205.006 81.1762C205.095 78.9587 205.73 76.7393 206.212 74.5785C206.783 72.0186 207.013 69.3275 207.434 66.731C208.115 62.5243 209.436 58.5069 210.311 54.3473C212.113 45.7728 213.611 34.7526 221.164 29.1401C222.152 28.4058 223.238 27.8638 224.307 27.2594C224.911 26.9173 225.81 26.0321 226.502 25.8777C227.257 25.7091 227.572 25.8401 227.879 26.7164C228.306 27.938 227.525 28.5087 226.796 29.396C224.273 32.4664 223.195 36.4024 221.638 40.0033C218.071 48.2489 216.493 56.9458 216.474 65.8588C216.465 70.5247 216.143 75.025 215.646 79.6626C215.11 84.6535 214.405 89.9321 212.889 94.7334C214.409 95.0743 216.06 94.566 216.472 96.3338C216.574 96.7681 216.39 97.2815 216.503 97.8468C216.612 98.3961 216.874 98.9426 217.029 99.4829C217.35 100.6 217.519 101.703 217.675 102.851C218.278 107.286 219.313 111.504 219.423 116.001C219.525 120.157 218.711 124.369 217.961 128.445C217.206 132.552 215.039 136.052 213.334 139.765C214.068 139.765 214.802 139.773 215.536 139.78Z" fill="white"/>
<path fill-rule="evenodd" clip-rule="evenodd" d="M119.006 130.341C118.197 130.57 114.292 131.002 114.293 132.227C114.294 132.962 118.193 132.947 118.884 133.027C118.925 132.132 118.965 131.237 119.006 130.341ZM127.626 138.797C129.876 139.225 132.93 138.623 134.369 136.639C135.041 135.712 135.36 134.302 135.579 133.196C135.788 132.142 136.433 129.511 135.994 128.523C135.455 127.309 130.285 128.577 128.779 128.717C126.153 128.959 123.436 128.988 120.808 128.816C120.808 131.531 120.669 134.176 122.265 136.512C123.417 138.197 125.58 138.595 127.626 138.797ZM127.173 142.149C124.728 141.254 122.161 141.836 120.569 139.211C120.165 138.545 119.825 137.829 119.581 137.089C119.461 136.765 119.368 136.433 119.302 136.093C119.427 135.362 119.159 135.155 118.498 135.474C117.202 135.222 115.781 136.112 114.416 135.85C111.105 135.214 111.707 130.471 113.929 128.829C114.368 128.505 114.806 128.415 115.308 128.254C116.416 127.901 117.015 128.296 118.028 128.195C118.847 128.115 119.072 127.256 119.952 126.878C120.528 126.631 121.328 126.65 121.933 126.625C125.102 126.495 128.281 126.496 131.471 126.289C132.958 126.193 134.564 126.429 136.022 126.174C136.704 126.055 136.606 125.601 137.252 125.999C137.921 126.412 137.632 127.937 137.598 128.546C137.403 132.063 137.194 135.835 135.309 138.91C133.586 141.724 130.193 142.012 127.173 142.149Z" fill="white"/>
<path fill-rule="evenodd" clip-rule="evenodd" d="M-1.95337 143.118C-1.16671 143.11 -0.380302 143.101 0.403665 143.093C-0.383968 143.102 -1.16867 143.11 -1.95337 143.118Z" fill="white"/>
<path fill-rule="evenodd" clip-rule="evenodd" d="M216.479 68.1239C216.478 67.3683 216.476 66.6127 216.474 65.8586C216.476 66.6147 216.478 67.3693 216.479 68.1239Z" fill="white"/>
<path fill-rule="evenodd" clip-rule="evenodd" d="M16.3753 71.2271C16.3729 71.9632 16.3704 72.6992 16.368 73.4336C16.3702 72.697 16.3726 71.9619 16.3753 71.2271Z" fill="white"/>
<path fill-rule="evenodd" clip-rule="evenodd" d="M81.7635 142.284C82.3894 142.285 83.0153 142.285 83.6382 142.287C83.0113 142.286 82.3877 142.285 81.7635 142.284Z" fill="white"/>
<path fill-rule="evenodd" clip-rule="evenodd" d="M43.7634 142.134C44.3892 142.136 45.0148 142.138 45.6378 142.14C45.0109 142.138 44.3873 142.136 43.7634 142.134Z" fill="white"/>
<path fill-rule="evenodd" clip-rule="evenodd" d="M180.594 111.564C180.566 112.061 180.538 112.557 180.511 113.053C180.539 112.556 180.566 112.06 180.594 111.564Z" fill="white"/>
<path fill-rule="evenodd" clip-rule="evenodd" d="M215.536 139.78C215.053 139.775 214.569 139.77 214.085 139.765C214.571 139.562 215.055 139.571 215.536 139.78Z" fill="white"/>
<path fill-rule="evenodd" clip-rule="evenodd" d="M172.597 141.98C172.945 141.974 173.292 141.969 173.635 141.963C173.287 141.968 172.942 141.974 172.597 141.98Z" fill="white"/>
<path fill-rule="evenodd" clip-rule="evenodd" d="M216.291 74.2549C216.3 73.8793 216.308 73.504 216.317 73.1298C216.308 73.5057 216.3 73.8803 216.291 74.2549Z" fill="white"/>
<path fill-rule="evenodd" clip-rule="evenodd" d="M183.83 26.7501C183.801 26.3628 183.773 25.9757 183.744 25.5893C183.773 25.9769 183.801 26.3635 183.83 26.7501Z" fill="white"/>
<path fill-rule="evenodd" clip-rule="evenodd" d="M216.462 69.6032C216.467 69.2149 216.472 68.8268 216.476 68.4399C216.472 68.8285 216.467 69.2158 216.462 69.6032Z" fill="white"/>
<path fill-rule="evenodd" clip-rule="evenodd" d="M107.302 141.498C107.611 141.503 107.919 141.508 108.225 141.511C107.916 141.507 107.609 141.503 107.302 141.498Z" fill="white"/>
<path fill-rule="evenodd" clip-rule="evenodd" d="M186.8 142.132C187.102 142.138 187.403 142.144 187.702 142.15C187.399 142.144 187.1 142.138 186.8 142.132Z" fill="white"/>
<path fill-rule="evenodd" clip-rule="evenodd" d="M219.389 114.832C219.367 114.491 219.345 114.151 219.324 113.811C219.346 114.152 219.367 114.492 219.389 114.832Z" fill="white"/>
<path fill-rule="evenodd" clip-rule="evenodd" d="M213.973 142.463C214.218 142.461 214.464 142.46 214.706 142.459C214.46 142.461 214.216 142.462 213.973 142.463Z" fill="white"/>
<path fill-rule="evenodd" clip-rule="evenodd" d="M180.513 142.147C180.756 142.141 180.999 142.135 181.24 142.129C180.996 142.136 180.754 142.141 180.513 142.147Z" fill="white"/>
<path fill-rule="evenodd" clip-rule="evenodd" d="M125.848 141.961C126.116 141.96 126.383 141.958 126.649 141.956C126.38 141.958 126.114 141.96 125.848 141.961Z" fill="white"/>
<path fill-rule="evenodd" clip-rule="evenodd" d="M64.1157 141.96C64.3701 141.962 64.6248 141.964 64.8765 141.966C64.6211 141.965 64.3684 141.963 64.1157 141.96Z" fill="white"/>
<path fill-rule="evenodd" clip-rule="evenodd" d="M49.0984 142.001C49.3579 141.987 49.617 141.972 49.8741 141.958C49.6138 141.973 49.3562 141.987 49.0984 142.001Z" fill="white"/>
<path fill-rule="evenodd" clip-rule="evenodd" d="M120.996 43.1213C120.61 43.0881 120.224 43.0548 119.838 43.0214C120.224 43.0485 120.633 42.8197 120.996 43.1213Z" fill="white"/>
<path fill-rule="evenodd" clip-rule="evenodd" d="M219.425 139.927C219.045 139.888 218.664 139.85 218.283 139.811C218.664 139.85 219.045 139.888 219.425 139.927Z" fill="white"/>
<path fill-rule="evenodd" clip-rule="evenodd" d="M192.868 45.4656C192.843 45.7992 192.817 46.133 192.791 46.4656C192.817 46.1316 192.843 45.7985 192.868 45.4656Z" fill="white"/>
<path fill-rule="evenodd" clip-rule="evenodd" d="M216.558 59.3737C216.584 59.0575 216.61 58.7413 216.636 58.4263C216.61 58.743 216.584 59.0582 216.558 59.3737Z" fill="white"/>
<path fill-rule="evenodd" clip-rule="evenodd" d="M192.717 50.6401C192.689 50.9732 192.662 51.306 192.635 51.6379C192.662 51.3046 192.689 50.9722 192.717 50.6401Z" fill="white"/>
<path fill-rule="evenodd" clip-rule="evenodd" d="M216.397 72.1396C216.394 71.8177 216.392 71.4959 216.39 71.175C216.597 71.4959 216.589 71.817 216.397 72.1396Z" fill="white"/>
<path fill-rule="evenodd" clip-rule="evenodd" d="M180.599 118.359C180.596 118.682 180.593 119.005 180.59 119.326C180.377 119.001 180.419 118.679 180.599 118.359Z" fill="white"/>
<path fill-rule="evenodd" clip-rule="evenodd" d="M204.866 81.0372C204.829 80.7107 204.792 80.384 204.755 80.0584C204.792 80.3854 204.829 80.7114 204.866 81.0372Z" fill="white"/>
<path fill-rule="evenodd" clip-rule="evenodd" d="M3.92222 51.0692C3.66977 51.4028 3.32593 51.1743 3.02583 51.2149C3.32495 51.1663 3.62359 51.1179 3.92222 51.0692Z" fill="white"/>
<path fill-rule="evenodd" clip-rule="evenodd" d="M128.749 126.521C128.43 126.521 128.111 126.521 127.792 126.522C128.112 126.521 128.43 126.521 128.749 126.521Z" fill="white"/>
<path fill-rule="evenodd" clip-rule="evenodd" d="M179.701 52.4397C179.731 52.711 179.761 52.9822 179.79 53.2525C179.761 52.9808 179.731 52.7102 179.701 52.4397Z" fill="white"/>
<path fill-rule="evenodd" clip-rule="evenodd" d="M22.0899 25.4991C21.7693 25.5055 21.4487 25.5118 21.1281 25.5182C21.4453 25.3315 21.7649 25.2775 22.0899 25.4991Z" fill="white"/>
<path fill-rule="evenodd" clip-rule="evenodd" d="M192.709 55.3324C192.688 55.6169 192.667 55.9011 192.647 56.1843C192.667 55.8999 192.688 55.6162 192.709 55.3324Z" fill="white"/>
<path fill-rule="evenodd" clip-rule="evenodd" d="M183.916 20.4151C183.941 20.1558 183.966 19.8965 183.99 19.6387C183.965 19.8985 183.941 20.1568 183.916 20.4151Z" fill="white"/>
<path fill-rule="evenodd" clip-rule="evenodd" d="M181.397 19.6028C181.371 19.884 181.346 20.1656 181.321 20.4459C181.346 20.1641 181.371 19.8833 181.397 19.6028Z" fill="white"/>
<path fill-rule="evenodd" clip-rule="evenodd" d="M42.1267 0.812012C41.8005 0.851601 41.4743 0.891191 41.1483 0.930536C41.4745 0.890946 41.8005 0.851601 42.1267 0.812012Z" fill="white"/>
<path fill-rule="evenodd" clip-rule="evenodd" d="M18.5627 25.723C18.2279 25.7572 17.8931 25.7914 17.5586 25.8256C17.8934 25.7914 18.2282 25.7572 18.5627 25.723Z" fill="white"/>
<path fill-rule="evenodd" clip-rule="evenodd" d="M202.026 26.5475C202.047 26.2858 202.067 26.0238 202.087 25.7636C202.067 26.0255 202.046 26.2865 202.026 26.5475Z" fill="white"/>
<path fill-rule="evenodd" clip-rule="evenodd" d="M7.57404 69.743C7.76685 69.7459 7.95942 69.7486 8.1493 69.7515C7.95575 69.7486 7.7649 69.7459 7.57404 69.743Z" fill="white"/>
<path fill-rule="evenodd" clip-rule="evenodd" d="M181.406 102.046C181.387 102.336 181.368 102.626 181.348 102.915C181.368 102.625 181.387 102.336 181.406 102.046Z" fill="white"/>
<path fill-rule="evenodd" clip-rule="evenodd" d="M201.075 45.6433C201.068 45.364 201.06 45.0849 201.052 44.8063C201.06 45.0859 201.068 45.3645 201.075 45.6433Z" fill="white"/>
<path fill-rule="evenodd" clip-rule="evenodd" d="M50.3393 0.151093C50.0419 0.151093 49.7445 0.151337 49.4476 0.151337C49.745 -0.0529636 50.0422 -0.0478315 50.3393 0.151093Z" fill="white"/>
<path fill-rule="evenodd" clip-rule="evenodd" d="M129.741 65.8947C129.415 65.903 129.089 65.9113 128.764 65.9197C129.084 65.6934 129.41 65.6877 129.741 65.8947Z" fill="white"/>
<path fill-rule="evenodd" clip-rule="evenodd" d="M158.208 141.487C158.401 141.491 158.595 141.495 158.785 141.5C158.591 141.496 158.4 141.491 158.208 141.487Z" fill="white"/>
<path fill-rule="evenodd" clip-rule="evenodd" d="M165.48 141.826C165.673 141.82 165.866 141.813 166.056 141.806C165.862 141.813 165.671 141.82 165.48 141.826Z" fill="white"/>
<path fill-rule="evenodd" clip-rule="evenodd" d="M51.6742 141.961C51.8753 141.966 52.0764 141.971 52.2748 141.976C52.073 141.971 51.8736 141.966 51.6742 141.961Z" fill="white"/>
<path fill-rule="evenodd" clip-rule="evenodd" d="M219.222 111.6C219.193 111.324 219.164 111.048 219.136 110.773C219.164 111.049 219.193 111.325 219.222 111.6Z" fill="white"/>
<path fill-rule="evenodd" clip-rule="evenodd" d="M192.955 65.0465C192.978 65.3097 193.001 65.5729 193.023 65.8344C193 65.5709 192.978 65.3087 192.955 65.0465Z" fill="white"/>
<path fill-rule="evenodd" clip-rule="evenodd" d="M203.063 60.5277C203.032 60.2486 203.001 59.9695 202.97 59.6914C203.001 59.9707 203.032 60.2491 203.063 60.5277Z" fill="white"/>
<path fill-rule="evenodd" clip-rule="evenodd" d="M53.3059 142.127C53.5087 142.124 53.7118 142.121 53.9125 142.118C53.7086 142.121 53.5073 142.124 53.3059 142.127Z" fill="white"/>
<path fill-rule="evenodd" clip-rule="evenodd" d="M127.173 142.149C127.371 142.14 127.568 142.131 127.763 142.122C127.565 142.131 127.369 142.14 127.173 142.149Z" fill="white"/>
<path fill-rule="evenodd" clip-rule="evenodd" d="M201.413 40.1492C201.404 39.8664 201.396 39.5837 201.387 39.3014C201.396 39.5844 201.405 39.8667 201.413 40.1492Z" fill="white"/>
<path fill-rule="evenodd" clip-rule="evenodd" d="M34.0725 142.312C34.2705 142.31 34.4682 142.309 34.6634 142.307C34.4645 142.309 34.2687 142.311 34.0725 142.312Z" fill="white"/>
<path fill-rule="evenodd" clip-rule="evenodd" d="M201.331 142.309C201.534 142.311 201.738 142.313 201.939 142.315C201.734 142.313 201.532 142.311 201.331 142.309Z" fill="white"/>
<path fill-rule="evenodd" clip-rule="evenodd" d="M205.724 142.285C205.92 142.299 206.116 142.313 206.31 142.326C206.113 142.312 205.918 142.299 205.724 142.285Z" fill="white"/>
<path fill-rule="evenodd" clip-rule="evenodd" d="M207.498 142.281C207.698 142.287 207.898 142.293 208.095 142.298C207.895 142.291 207.696 142.286 207.498 142.281Z" fill="white"/>
<path fill-rule="evenodd" clip-rule="evenodd" d="M216.607 61.6486C216.594 61.3705 216.581 61.0922 216.568 60.8148C216.581 61.0934 216.594 61.371 216.607 61.6486Z" fill="white"/>
<path fill-rule="evenodd" clip-rule="evenodd" d="M82.3615 138.636C82.9698 138.604 83.5783 138.573 84.1868 138.541C83.5783 138.573 82.9698 138.604 82.3615 138.636Z" fill="white"/>
<path fill-rule="evenodd" clip-rule="evenodd" d="M45.6585 37.5126C46.1866 37.5585 46.7147 37.6045 47.2424 37.6499C46.7142 37.6042 46.1864 37.5583 45.6585 37.5126Z" fill="white"/>
<path fill-rule="evenodd" clip-rule="evenodd" d="M194.766 60.4725C194.782 60.9764 194.799 61.4803 194.815 61.9827C194.799 61.4786 194.782 60.9756 194.766 60.4725Z" fill="white"/>
<path fill-rule="evenodd" clip-rule="evenodd" d="M205.664 139.497C206.216 139.531 206.767 139.564 207.318 139.598C206.763 139.623 206.2 139.781 205.664 139.497Z" fill="white"/>
<path fill-rule="evenodd" clip-rule="evenodd" d="M202.402 79.892C202.406 79.4113 202.41 78.9306 202.414 78.4512C202.41 78.9321 202.406 79.4121 202.402 79.892Z" fill="white"/>
<path fill-rule="evenodd" clip-rule="evenodd" d="M200.991 94.9949C201.475 95.0012 201.959 95.0078 202.442 95.0142C201.958 95.0076 201.475 95.0012 200.991 94.9949Z" fill="white"/>
<path fill-rule="evenodd" clip-rule="evenodd" d="M79.2208 86.544C79.2086 86.9103 79.1966 87.2767 79.1851 87.6413C79.1973 87.2745 79.2091 86.9094 79.2208 86.544Z" fill="white"/>
<path fill-rule="evenodd" clip-rule="evenodd" d="M209.041 71.0321C209.022 71.3967 209.002 71.7611 208.983 72.1237C209.003 71.7589 209.022 71.3955 209.041 71.0321Z" fill="white"/>
<path fill-rule="evenodd" clip-rule="evenodd" d="M198.722 137.876C199.073 137.852 199.425 137.828 199.777 137.805C199.512 138.017 199.246 138.035 198.722 137.876Z" fill="white"/>
<path fill-rule="evenodd" clip-rule="evenodd" d="M196.366 90.2219C196.391 90.6149 196.415 91.0078 196.439 91.3996C196.415 91.0064 196.391 90.6142 196.366 90.2219Z" fill="white"/>
<path fill-rule="evenodd" clip-rule="evenodd" d="M64.7893 28.1976C64.7929 27.8181 64.7966 27.4385 64.8005 27.0605C64.7968 27.4405 64.7932 27.819 64.7893 28.1976Z" fill="white"/>
<path fill-rule="evenodd" clip-rule="evenodd" d="M196.792 95.0741L198.104 95.0455C197.671 95.2547 197.234 95.262 196.792 95.0741Z" fill="white"/>
<path fill-rule="evenodd" clip-rule="evenodd" d="M208.893 97.8749C208.583 97.8776 208.274 97.88 207.967 97.8832C208.277 97.8807 208.585 97.8778 208.893 97.8749Z" fill="white"/>
<path fill-rule="evenodd" clip-rule="evenodd" d="M95.6301 138.026C96.0583 138.032 96.4864 138.038 96.9146 138.043C96.4832 138.259 96.0546 138.29 95.6301 138.026Z" fill="white"/>
<path fill-rule="evenodd" clip-rule="evenodd" d="M14.9777 139.288C15.4122 139.249 15.847 139.21 16.2815 139.172C15.847 139.21 15.4122 139.249 14.9777 139.288Z" fill="white"/>
<path fill-rule="evenodd" clip-rule="evenodd" d="M194.916 63.7088C194.938 64.1032 194.959 64.4976 194.98 64.8908C194.959 64.4959 194.938 64.1024 194.916 63.7088Z" fill="white"/>
<path fill-rule="evenodd" clip-rule="evenodd" d="M56.2213 38.4385C56.5877 38.2579 56.9569 38.2276 57.3298 38.419C56.9601 38.4256 56.5908 38.4322 56.2213 38.4385Z" fill="white"/>
<path fill-rule="evenodd" clip-rule="evenodd" d="M182.934 68.2632C182.964 68.5958 182.994 68.9287 183.025 69.2603C182.994 68.9272 182.964 68.5951 182.934 68.2632Z" fill="white"/>
<path fill-rule="evenodd" clip-rule="evenodd" d="M213.879 60.5001C213.69 60.1745 213.697 59.8507 213.888 59.5299C213.885 59.8537 213.882 60.177 213.879 60.5001Z" fill="white"/>
<path fill-rule="evenodd" clip-rule="evenodd" d="M194.976 49.2C194.976 49.5292 194.977 49.8586 194.977 50.1868C194.976 49.8569 194.976 49.5284 194.976 49.2Z" fill="white"/>
<path fill-rule="evenodd" clip-rule="evenodd" d="M208.108 94.8375C208.485 94.7219 208.862 94.5584 209.237 94.8414C208.861 94.8402 208.485 94.8387 208.108 94.8375Z" fill="white"/>
<path fill-rule="evenodd" clip-rule="evenodd" d="M86.2594 138.487C86.6389 138.452 87.0182 138.416 87.3975 138.381C87.0182 138.416 86.6389 138.452 86.2594 138.487Z" fill="white"/>
<path fill-rule="evenodd" clip-rule="evenodd" d="M34.2445 138.488C34.592 138.335 34.9388 138.255 35.2812 138.499C34.9354 138.495 34.5901 138.492 34.2445 138.488Z" fill="white"/>
<path fill-rule="evenodd" clip-rule="evenodd" d="M105.325 137.997C105.697 137.835 106.068 137.746 106.435 138.009C106.065 138.005 105.695 138.001 105.325 137.997Z" fill="white"/>
<path fill-rule="evenodd" clip-rule="evenodd" d="M22.606 89.9221C22.6339 90.2576 22.662 90.5931 22.6896 90.9277C22.6615 90.5919 22.6336 90.2571 22.606 89.9221Z" fill="white"/>
<path fill-rule="evenodd" clip-rule="evenodd" d="M108.878 70.5956C109.243 70.4627 109.608 70.3933 109.967 70.6154C109.603 70.6086 109.241 70.6022 108.878 70.5956Z" fill="white"/>
<path fill-rule="evenodd" clip-rule="evenodd" d="M194.911 80.5834C194.931 80.9113 194.951 81.2393 194.971 81.5665C194.951 81.2383 194.931 80.9108 194.911 80.5834Z" fill="white"/>
<path fill-rule="evenodd" clip-rule="evenodd" d="M22.3697 50.991C22.3394 51.2552 22.3091 51.5196 22.279 51.7823C22.3093 51.5177 22.3394 51.2545 22.3697 50.991Z" fill="white"/>
<path fill-rule="evenodd" clip-rule="evenodd" d="M1.17909 127.602C1.16027 127.859 1.1417 128.116 1.12312 128.372C1.14243 128.114 1.16076 127.858 1.17909 127.602Z" fill="white"/>
<path fill-rule="evenodd" clip-rule="evenodd" d="M202.564 82.319C202.544 82.0531 202.523 81.7872 202.503 81.5225C202.523 81.7889 202.544 82.054 202.564 82.319Z" fill="white"/>
<path fill-rule="evenodd" clip-rule="evenodd" d="M175.939 137.501C176.265 137.503 176.591 137.506 176.916 137.508C176.59 137.506 176.265 137.503 175.939 137.501Z" fill="white"/>
<path fill-rule="evenodd" clip-rule="evenodd" d="M79.0974 88.8065C79.1582 89 79.2191 89.1938 79.2799 89.3876C78.8735 89.4858 78.8127 89.292 79.0974 88.8065Z" fill="white"/>
<path fill-rule="evenodd" clip-rule="evenodd" d="M103.524 70.1582C103.854 70.1567 104.185 70.1555 104.516 70.154C104.186 70.3109 103.855 70.4187 103.524 70.1582Z" fill="white"/>
<path fill-rule="evenodd" clip-rule="evenodd" d="M22.7915 91.5105C22.8028 91.8038 22.814 92.0973 22.8248 92.3896C22.8133 92.0961 22.8023 91.8033 22.7915 91.5105Z" fill="white"/>
<path fill-rule="evenodd" clip-rule="evenodd" d="M26.292 138.809C26.6114 138.808 26.9306 138.808 27.25 138.808C26.9303 138.808 26.6114 138.808 26.292 138.809Z" fill="white"/>
<path fill-rule="evenodd" clip-rule="evenodd" d="M183.737 94.6027C183.749 94.8727 183.761 95.1427 183.773 95.4113C183.761 95.1405 183.749 94.8717 183.737 94.6027Z" fill="white"/>
<path fill-rule="evenodd" clip-rule="evenodd" d="M19.5115 139.138C19.8255 138.929 20.1403 138.947 20.4555 139.134C20.1408 139.136 19.826 139.137 19.5115 139.138Z" fill="white"/>
<path fill-rule="evenodd" clip-rule="evenodd" d="M27.7807 47.2186C27.7976 47.4942 27.8147 47.7701 27.8323 48.0441C27.8154 47.7679 27.7981 47.4932 27.7807 47.2186Z" fill="white"/>
<path fill-rule="evenodd" clip-rule="evenodd" d="M17.8775 139.166C18.204 139.167 18.5305 139.169 18.8568 139.17C18.5293 139.393 18.203 139.404 17.8775 139.166Z" fill="white"/>
<path fill-rule="evenodd" clip-rule="evenodd" d="M198.666 42.8913C198.669 42.6113 198.671 42.3315 198.674 42.0522C198.671 42.3325 198.669 42.6118 198.666 42.8913Z" fill="white"/>
<path fill-rule="evenodd" clip-rule="evenodd" d="M48.7766 37.994C49.0889 38.0348 49.4012 38.0756 49.7133 38.1162C49.4009 38.0754 49.0886 38.0348 48.7766 37.994Z" fill="white"/>
<path fill-rule="evenodd" clip-rule="evenodd" d="M21.2165 62.1628C21.2206 62.4243 21.2248 62.686 21.2297 62.9463C21.2255 62.6843 21.2211 62.4236 21.2165 62.1628Z" fill="white"/>
<path fill-rule="evenodd" clip-rule="evenodd" d="M200.769 62.1252C200.752 61.8588 200.734 61.5924 200.717 61.3273C200.734 61.5941 200.752 61.8598 200.769 62.1252Z" fill="white"/>
<path fill-rule="evenodd" clip-rule="evenodd" d="M127.926 138.854C128.312 138.889 128.697 138.924 129.082 138.958C128.697 138.923 128.312 138.889 127.926 138.854Z" fill="white"/>
<path fill-rule="evenodd" clip-rule="evenodd" d="M126.639 128.878C126.43 128.881 126.222 128.884 126.016 128.889C126.225 128.886 126.432 128.882 126.639 128.878Z" fill="white"/>
<path fill-rule="evenodd" clip-rule="evenodd" d="M126.656 138.701C126.979 138.733 127.303 138.765 127.626 138.797C127.303 138.765 126.979 138.733 126.656 138.701Z" fill="white"/>
<path fill-rule="evenodd" clip-rule="evenodd" d="M68.4889 116.935C68.9094 119.311 65.2164 121.635 64.9236 118.257C64.8166 117.022 65.6426 116.153 66.5676 115.398C67.8804 114.326 68.6137 115.353 68.4889 116.935Z" fill="white"/>
<path fill-rule="evenodd" clip-rule="evenodd" d="M27.782 87.9424C28.652 88.2984 35.2988 90.4643 31.8462 91.5538C30.9323 91.8422 29.5508 91.8852 28.7585 91.3771C27.8054 90.7657 26.8441 88.9614 27.782 87.9424Z" fill="white"/>
<path fill-rule="evenodd" clip-rule="evenodd" d="M29.4179 55.7616C31.674 55.4996 33.7526 59.2051 30.9711 59.0849C28.9464 58.9971 26.2236 55.7616 29.4179 55.7616Z" fill="white"/>
<path fill-rule="evenodd" clip-rule="evenodd" d="M37.4884 64.8471C39.3723 66.4908 35.8804 70.1694 34.494 68.7457C33.7861 68.0184 34.4391 66.4517 35.0234 65.8432C35.6231 65.2188 36.69 65.1015 37.4884 64.8471Z" fill="white"/>
<path fill-rule="evenodd" clip-rule="evenodd" d="M43.0969 107.459C41.9848 107.636 37.0938 109.234 38.1138 106.331C38.5028 105.224 39.5879 105.553 40.5798 105.603C42.1785 105.685 43.0969 105.608 43.0969 107.459Z" fill="white"/>
<path fill-rule="evenodd" clip-rule="evenodd" d="M39.8753 114.936C41.5402 115.827 39.1065 120.812 37.7265 119.751C35.8118 118.28 38.4305 115.384 39.8753 114.936Z" fill="white"/>
<path fill-rule="evenodd" clip-rule="evenodd" d="M47.1367 110.929C47.9464 110.599 51.7628 114.27 50.31 115.291C49.5654 115.814 48.1546 114.917 47.7057 114.376C46.864 113.361 46.7878 112.11 47.1367 110.929Z" fill="white"/>
<path fill-rule="evenodd" clip-rule="evenodd" d="M25.1175 80.9233C25.945 81.0592 27.3736 81.1022 27.4271 82.2649C27.474 83.2869 26.1928 83.6181 25.2908 83.6982C24.3548 83.7813 23.1158 83.5171 23.0979 82.3405C23.0791 81.0709 25.0882 81.1474 25.1175 80.9233Z" fill="white"/>
<path fill-rule="evenodd" clip-rule="evenodd" d="M45.5227 131.522C46.4039 132.057 50.5144 133.984 48.7524 135.375C48.0931 135.896 46.0943 134.82 45.6444 134.274C45.1075 133.621 44.5828 132.093 45.5227 131.522Z" fill="white"/>
<path fill-rule="evenodd" clip-rule="evenodd" d="M56.9493 117.545C56.822 115.419 60.409 114.573 59.6654 117.591C59.4557 118.442 59.2528 119.733 58.2008 119.783C56.9574 119.841 56.9124 118.37 56.9493 117.545Z" fill="white"/>
<path fill-rule="evenodd" clip-rule="evenodd" d="M45.8687 80.5731C45.8936 82.186 42.8032 83.6083 42.7792 81.0518C42.758 78.7674 45.984 78.0988 45.8687 80.5731Z" fill="white"/>
<path fill-rule="evenodd" clip-rule="evenodd" d="M43.8279 72.1731C44.5894 72.4184 45.6014 72.5448 45.6683 73.5123C45.7395 74.5362 44.7883 74.992 43.9325 74.9345C43.2307 74.8874 42.192 74.3678 42.0645 73.6063C41.8775 72.4886 42.9684 72.4155 43.8279 72.1731Z" fill="white"/>
<path fill-rule="evenodd" clip-rule="evenodd" d="M29.6681 101.702C29.6552 100.371 32.3223 98.7718 32.8135 100.316C32.9706 100.81 31.7136 103.026 31.2954 103.192C30.1891 103.631 30.0347 102.608 29.6681 101.702Z" fill="white"/>
<path fill-rule="evenodd" clip-rule="evenodd" d="M51.5241 123.853C50.6228 124.66 47.9192 126.926 48.1213 123.884C48.2504 121.941 51.7619 122.042 51.5241 123.853Z" fill="white"/>
<path fill-rule="evenodd" clip-rule="evenodd" d="M95.5717 132.548C95.8671 131.269 100.097 133.487 98.6853 135.103C98.2117 135.645 96.973 135.155 96.4967 134.833C95.5541 134.197 95.5336 133.61 95.5717 132.548Z" fill="white"/>
<path fill-rule="evenodd" clip-rule="evenodd" d="M72.005 105.168C72.17 104.598 72.3533 103.589 72.8972 103.226C73.8816 102.567 74.7386 103.56 74.7389 104.607C74.7391 106.56 72.5165 107.175 72.005 105.168Z" fill="white"/>
<path fill-rule="evenodd" clip-rule="evenodd" d="M61.5219 127.997C62.6201 128.249 65.0654 130.919 63.6472 132.008C62.2824 133.056 60.4671 128.795 61.5219 127.997Z" fill="white"/>
<path fill-rule="evenodd" clip-rule="evenodd" d="M62.5673 107.79C63.9793 107.903 65.9202 110.19 63.7254 110.553C62.0087 110.837 60.0121 108.35 62.5673 107.79Z" fill="white"/>
<path fill-rule="evenodd" clip-rule="evenodd" d="M75.3508 118.313C75.7049 117.12 79.2068 118.398 79.0101 119.711C78.9055 120.409 77.4737 120.573 76.721 120.389C75.613 120.117 75.3254 119.39 75.3508 118.313Z" fill="white"/>
<path fill-rule="evenodd" clip-rule="evenodd" d="M34.071 51.6934C34.0965 50.1514 37.0595 49.5228 37.2766 51.0768C37.4728 52.4808 34.0339 53.9747 34.071 51.6934Z" fill="white"/>
<path fill-rule="evenodd" clip-rule="evenodd" d="M74.3718 134.202C74.5854 133.426 74.6775 132.493 75.646 132.391C76.755 132.274 76.7222 133.124 76.592 134.006C76.2371 136.403 74.8823 136.523 74.3718 134.202Z" fill="white"/>
<path fill-rule="evenodd" clip-rule="evenodd" d="M27.5792 70.0401C26.0344 70.3886 23.2053 67.4135 24.9345 66.7752C26.153 66.3248 27.5792 69.1425 27.5792 70.0401Z" fill="white"/>
<path fill-rule="evenodd" clip-rule="evenodd" d="M47.2815 93.1496C46.4953 93.5198 46.3142 93.7444 45.7104 93.1369C45.1845 92.6078 45.2077 91.1337 45.659 90.5833C47.3878 88.4758 47.3472 92.2967 47.2815 93.1496Z" fill="white"/>
<path fill-rule="evenodd" clip-rule="evenodd" d="M53.6954 88.8752C54.5153 88.9795 56.9515 91.2903 55.6829 92.2087C54.1285 93.3338 53.2489 89.8092 53.6954 88.8752Z" fill="white"/>
<path fill-rule="evenodd" clip-rule="evenodd" d="M71.4344 89.4836C70.8383 91.7786 69.3508 90.2344 69.4351 88.4978C69.5705 85.7163 71.112 88.1388 71.4344 89.4836Z" fill="white"/>
<path fill-rule="evenodd" clip-rule="evenodd" d="M80.4793 126.342C81.4876 126.76 82.8562 130.614 81.416 130.821C79.7985 131.052 80.3371 127.145 80.4793 126.342Z" fill="white"/>
<path fill-rule="evenodd" clip-rule="evenodd" d="M67.8877 124.177C69.0414 123.788 69.4642 126.221 68.7936 126.673C67.3183 127.668 67.6294 124.751 67.8877 124.177Z" fill="white"/>
<path fill-rule="evenodd" clip-rule="evenodd" d="M56.9494 117.545C56.9347 117.869 56.9203 118.192 56.9051 118.513C56.9195 118.189 56.9342 117.867 56.9494 117.545Z" fill="white"/>
<path fill-rule="evenodd" clip-rule="evenodd" d="M95.5717 132.548C95.5597 132.879 95.5477 133.21 95.5353 133.54C95.5467 133.208 95.5592 132.878 95.5717 132.548Z" fill="white"/>
<path fill-rule="evenodd" clip-rule="evenodd" d="M75.3508 118.313C75.3444 118.594 75.3376 118.875 75.3303 119.154C75.3366 118.872 75.344 118.592 75.3508 118.313Z" fill="white"/>
<path fill-rule="evenodd" clip-rule="evenodd" d="M202.965 113.476C205.357 113.399 208.025 112.499 210.375 112.785C211.023 112.864 212.512 113.027 211.475 113.987C210.98 114.446 208.606 114.209 207.887 114.361C203.496 115.291 198.51 115.89 194.007 115.813C191.899 115.777 189.776 115.608 187.669 115.497C185.563 115.385 185.356 114.53 187.725 114.257C190.186 113.975 192.711 114.08 195.184 114.077C197.783 114.073 200.37 113.65 202.965 113.476Z" fill="white"/>
<path fill-rule="evenodd" clip-rule="evenodd" d="M208.216 107.713C207.986 108.369 207.784 109.873 206.901 109.972C205.666 110.11 205.461 107.988 205.507 107.212C205.562 106.276 205.899 104.72 207.063 105.045C208.046 105.318 208.145 106.964 208.216 107.713Z" fill="white"/>
<path fill-rule="evenodd" clip-rule="evenodd" d="M200.736 107.233C200.916 106.531 201.005 104.949 201.998 104.895C203.107 104.835 203.424 106.484 203.417 107.274C203.409 108.024 203.132 109.441 202.249 109.614C201.051 109.849 200.944 108.035 200.736 107.233Z" fill="white"/>
<path fill-rule="evenodd" clip-rule="evenodd" d="M188.278 108.492C187.919 109.336 187.681 110.498 186.569 109.923C185.708 109.478 185.588 107.684 185.751 106.862C185.919 106.011 186.275 105.035 187.253 105.418C188.38 105.86 188.266 107.563 188.278 108.492Z" fill="white"/>
<path fill-rule="evenodd" clip-rule="evenodd" d="M197.712 107.713C196.652 110.927 194.718 108.753 195.452 106.353C196.22 103.845 197.615 106.281 197.712 107.713Z" fill="white"/>
<path fill-rule="evenodd" clip-rule="evenodd" d="M192.546 107.872C192.251 108.438 191.938 109.659 191.144 109.531C190.171 109.373 190.14 107.5 190.247 106.803C190.34 106.192 190.614 105.175 191.428 105.188C192.605 105.207 192.526 107.14 192.546 107.872Z" fill="white"/>
<path fill-rule="evenodd" clip-rule="evenodd" d="M213.697 108.489C212.908 110.26 211.822 108.735 212.169 107.477C212.685 105.611 213.652 107.264 213.697 108.489Z" fill="white"/>
<path fill-rule="evenodd" clip-rule="evenodd" d="M194.366 114.079C193.504 114.075 192.641 114.072 191.78 114.069C192.642 113.907 193.505 113.843 194.366 114.079Z" fill="white"/>
<path fill-rule="evenodd" clip-rule="evenodd" d="M211.497 112.778C210.749 112.783 210.002 112.788 209.254 112.793C210.001 112.569 210.748 112.564 211.497 112.778Z" fill="white"/>
<path fill-rule="evenodd" clip-rule="evenodd" d="M202.965 113.476C202.366 113.516 201.768 113.556 201.17 113.596C201.768 113.556 202.367 113.516 202.965 113.476Z" fill="white"/>
<path fill-rule="evenodd" clip-rule="evenodd" d="M188.278 108.492C188.273 108.063 188.267 107.633 188.262 107.204C188.483 107.631 188.468 108.061 188.278 108.492Z" fill="white"/>
<path fill-rule="evenodd" clip-rule="evenodd" d="M192.969 115.804C193.316 115.807 193.663 115.81 194.007 115.813C193.659 115.81 193.314 115.807 192.969 115.804Z" fill="white"/>
<path fill-rule="evenodd" clip-rule="evenodd" d="M187.142 115.497C187.493 115.497 187.845 115.496 188.194 115.497C187.841 115.497 187.491 115.497 187.142 115.497Z" fill="white"/>
<path fill-rule="evenodd" clip-rule="evenodd" d="M190.023 114.116C189.535 114.156 189.046 114.196 188.557 114.236C189.046 114.196 189.535 114.156 190.023 114.116Z" fill="white"/>
<path fill-rule="evenodd" clip-rule="evenodd" d="M196.631 114.074C196.149 114.075 195.666 114.075 195.184 114.076C195.666 113.873 196.148 113.867 196.631 114.074Z" fill="white"/>
<path fill-rule="evenodd" clip-rule="evenodd" d="M192.546 107.872C192.534 107.424 192.522 106.977 192.511 106.53C192.523 106.978 192.534 107.425 192.546 107.872Z" fill="white"/>
<path fill-rule="evenodd" clip-rule="evenodd" d="M185.751 106.862C185.748 107.299 185.746 107.736 185.742 108.171C185.745 107.734 185.748 107.298 185.751 106.862Z" fill="white"/>
<path fill-rule="evenodd" clip-rule="evenodd" d="M205.707 113.314C205.28 113.352 204.854 113.391 204.428 113.429C204.854 113.391 205.281 113.352 205.707 113.314Z" fill="white"/>
<path fill-rule="evenodd" clip-rule="evenodd" d="M213.697 108.489C213.683 108.108 213.67 107.726 213.656 107.345C213.67 107.727 213.683 108.108 213.697 108.489Z" fill="white"/>
<path fill-rule="evenodd" clip-rule="evenodd" d="M195.547 115.817C195.844 115.811 196.141 115.805 196.435 115.8C196.137 115.806 195.842 115.812 195.547 115.817Z" fill="white"/>
<path fill-rule="evenodd" clip-rule="evenodd" d="M208.216 107.713C208.19 107.439 208.164 107.164 208.138 106.891C208.164 107.166 208.19 107.439 208.216 107.713Z" fill="white"/>
<path fill-rule="evenodd" clip-rule="evenodd" d="M197.712 107.713C197.693 107.432 197.674 107.15 197.655 106.869C197.674 107.151 197.693 107.432 197.712 107.713Z" fill="white"/>
<path fill-rule="evenodd" clip-rule="evenodd" d="M44.5754 24.9835C43.4076 24.6771 43.1886 23.0358 43.3763 22.0277C43.5891 21.5419 43.802 21.0563 44.0148 20.5705C43.9315 20.3909 43.8484 20.2113 43.7653 20.0317C43.8721 19.0312 43.5992 18.5964 44.749 19.0016C46.8848 19.7548 47.2262 24.9063 44.5754 24.9835Z" fill="white"/>
<path fill-rule="evenodd" clip-rule="evenodd" d="M61.8633 21.8102C62.8254 21.7345 64.573 22.855 63.6152 23.939C63.0219 24.6106 61.0666 24.2929 60.269 24.4332C59.211 24.6191 58.1077 24.8735 58.68 23.289C59.1294 22.0446 60.7345 21.7777 61.8633 21.8102Z" fill="white"/>
<path fill-rule="evenodd" clip-rule="evenodd" d="M60.8508 29.2635C59.8735 28.4798 60.3097 24.9102 61.797 25.5524C63.3271 26.2135 61.6663 28.7484 60.8508 29.2635Z" fill="white"/>
<path fill-rule="evenodd" clip-rule="evenodd" d="M43.3763 22.0277C43.3763 22.4034 43.3761 22.7792 43.3753 23.1531C43.1715 22.7768 43.1779 22.4021 43.3763 22.0277Z" fill="white"/>
<path fill-rule="evenodd" clip-rule="evenodd" d="M44.5754 24.9835C44.7746 24.9779 44.974 24.972 45.1707 24.9669C44.9706 24.9732 44.7731 24.9784 44.5754 24.9835Z" fill="white"/>
<path fill-rule="evenodd" clip-rule="evenodd" d="M165.245 127.786C165.154 129.409 163.41 128.209 163.534 127.123C163.759 125.151 164.873 127.099 165.245 127.786Z" fill="white"/>
</svg>
