<svg width="39" height="39" viewBox="0 0 39 39" fill="none" xmlns="http://www.w3.org/2000/svg">
<circle cx="19.5" cy="19.5" r="19.5" fill="white"/>
<path fill-rule="evenodd" clip-rule="evenodd" d="M19.8894 7.25733C19.7714 7.18774 19.637 7.15104 19.5 7.15104C19.363 7.15104 19.2285 7.18774 19.1105 7.25733L10.6772 12.2407C10.5628 12.3086 10.468 12.405 10.4022 12.5206C10.3363 12.6362 10.3017 12.767 10.3017 12.9C10.3017 13.033 10.3363 13.1638 10.4022 13.2794C10.468 13.395 10.5628 13.4914 10.6772 13.5593L19.1105 18.5427C19.2285 18.6123 19.363 18.649 19.5 18.649C19.637 18.649 19.7714 18.6123 19.8894 18.5427L28.3228 13.5593C28.4372 13.4914 28.5319 13.395 28.5978 13.2794C28.6636 13.1638 28.6982 13.033 28.6982 12.9C28.6982 12.767 28.6636 12.6362 28.5978 12.5206C28.5319 12.405 28.4372 12.3086 28.3228 12.2407L19.8894 7.25733ZM19.5 16.994L12.5739 12.9L19.5 8.806L26.426 12.9L19.5 16.994ZM10.4073 17.4939C10.5108 17.3192 10.6793 17.1927 10.8759 17.1421C11.0725 17.0915 11.2812 17.1209 11.4561 17.224L19.5 21.9773L27.5438 17.224C27.6305 17.1669 27.7279 17.1281 27.8301 17.1098C27.9323 17.0915 28.0371 17.0942 28.1382 17.1176C28.2394 17.141 28.3347 17.1848 28.4184 17.2461C28.5021 17.3075 28.5725 17.3852 28.6253 17.4746C28.6781 17.5639 28.7122 17.6631 28.7255 17.766C28.7388 17.869 28.7311 17.9736 28.7028 18.0734C28.6746 18.1733 28.6263 18.2664 28.561 18.347C28.4956 18.4277 28.4146 18.4943 28.3228 18.5427L19.8894 23.526C19.7714 23.5956 19.637 23.6323 19.5 23.6323C19.363 23.6323 19.2285 23.5956 19.1105 23.526L10.6772 18.5427C10.5022 18.4395 10.3754 18.271 10.3245 18.0744C10.2736 17.8778 10.3028 17.669 10.4058 17.4939H10.4073ZM10.4073 22.0939C10.5105 21.9189 10.6789 21.7921 10.8756 21.7412C11.0722 21.6903 11.281 21.7195 11.4561 21.8225L19.5 26.5758L27.5438 21.8225C27.7186 21.7251 27.9245 21.6999 28.1175 21.7523C28.3106 21.8046 28.4756 21.9304 28.5772 22.1026C28.6789 22.2749 28.7092 22.4801 28.6616 22.6744C28.6141 22.8687 28.4925 23.0368 28.3228 23.1427L19.8894 28.126C19.7714 28.1956 19.637 28.2323 19.5 28.2323C19.363 28.2323 19.2285 28.1956 19.1105 28.126L10.6772 23.1427C10.5022 23.0395 10.3754 22.8711 10.3245 22.6744C10.2736 22.4778 10.3028 22.269 10.4058 22.0939H10.4073Z" fill="#060A6E"/>
</svg>
