<svg width="39" height="39" viewBox="0 0 39 39" fill="none" xmlns="http://www.w3.org/2000/svg">
<circle cx="19.5" cy="19.5" r="19.5" fill="white"/>
<path fill-rule="evenodd" clip-rule="evenodd" d="M12 10.1667C12 9.94565 12.0878 9.73369 12.2441 9.57741C12.4004 9.42113 12.6124 9.33333 12.8334 9.33333H22.1434C22.364 9.33338 22.5755 9.42089 22.7317 9.57667L26.7567 13.6017C26.9125 13.7578 27 13.9694 27 14.19V26.8333C27 27.0543 26.9122 27.2663 26.756 27.4226C26.5997 27.5789 26.3877 27.6667 26.1667 27.6667H12.8334C12.6124 27.6667 12.4004 27.5789 12.2441 27.4226C12.0878 27.2663 12 27.0543 12 26.8333V10.1667ZM12.8334 7.66667C12.1703 7.66667 11.5344 7.93006 11.0656 8.3989C10.5968 8.86774 10.3334 9.50363 10.3334 10.1667V26.8333C10.3334 27.4964 10.5968 28.1323 11.0656 28.6011C11.5344 29.0699 12.1703 29.3333 12.8334 29.3333H26.1667C26.8297 29.3333 27.4656 29.0699 27.9345 28.6011C28.4033 28.1323 28.6667 27.4964 28.6667 26.8333V14.19C28.6661 13.5272 28.4023 12.8917 27.9334 12.4233L23.91 8.39833C23.4414 7.92997 22.806 7.66681 22.1434 7.66667H12.8334ZM14.5 12.6667C14.279 12.6667 14.0671 12.7545 13.9108 12.9107C13.7545 13.067 13.6667 13.279 13.6667 13.5C13.6667 13.721 13.7545 13.933 13.9108 14.0893C14.0671 14.2455 14.279 14.3333 14.5 14.3333H19.5C19.7211 14.3333 19.933 14.2455 20.0893 14.0893C20.2456 13.933 20.3334 13.721 20.3334 13.5C20.3334 13.279 20.2456 13.067 20.0893 12.9107C19.933 12.7545 19.7211 12.6667 19.5 12.6667H14.5ZM14.5 17.6667C14.279 17.6667 14.0671 17.7545 13.9108 17.9107C13.7545 18.067 13.6667 18.279 13.6667 18.5C13.6667 18.721 13.7545 18.933 13.9108 19.0893C14.0671 19.2455 14.279 19.3333 14.5 19.3333H24.5C24.7211 19.3333 24.933 19.2455 25.0893 19.0893C25.2456 18.933 25.3334 18.721 25.3334 18.5C25.3334 18.279 25.2456 18.067 25.0893 17.9107C24.933 17.7545 24.7211 17.6667 24.5 17.6667H14.5ZM14.5 22.6667C14.279 22.6667 14.0671 22.7545 13.9108 22.9107C13.7545 23.067 13.6667 23.279 13.6667 23.5C13.6667 23.721 13.7545 23.933 13.9108 24.0893C14.0671 24.2455 14.279 24.3333 14.5 24.3333H24.5C24.7211 24.3333 24.933 24.2455 25.0893 24.0893C25.2456 23.933 25.3334 23.721 25.3334 23.5C25.3334 23.279 25.2456 23.067 25.0893 22.9107C24.933 22.7545 24.7211 22.6667 24.5 22.6667H14.5Z" fill="#060A6E"/>
</svg>
