<svg width="39" height="39" viewBox="0 0 39 39" fill="none" xmlns="http://www.w3.org/2000/svg">
<circle cx="19.5" cy="19.5" r="19.5" fill="white"/>
<path fill-rule="evenodd" clip-rule="evenodd" d="M26.6239 8.8336C26.7676 8.68362 26.9626 8.59937 27.1659 8.59937C27.3692 8.59937 27.5641 8.68362 27.7079 8.8336L30.7746 12.0336C30.846 12.1079 30.9026 12.1962 30.9413 12.2934C30.9799 12.3906 30.9998 12.4948 30.9998 12.6C30.9998 12.7052 30.9799 12.8094 30.9413 12.9066C30.9026 13.0038 30.846 13.0921 30.7746 13.1664L24.7302 19.4736C24.6137 19.5956 24.4791 19.6972 24.3315 19.7744L18.3101 22.9152C18.1663 22.9901 18.0036 23.0159 17.8449 22.9891C17.6863 22.9622 17.5397 22.884 17.426 22.7655C17.3123 22.647 17.2371 22.4942 17.2111 22.3287C17.1852 22.1632 17.2097 21.9934 17.2813 21.8432L20.2912 15.5584C20.3652 15.4044 20.4625 15.264 20.5795 15.1424L26.6239 8.8336ZM27.1667 10.5312L21.662 16.2752L20.0719 19.5968L20.4614 20.0032L23.6461 18.3424L29.1493 12.6L27.1667 10.5312ZM23.3333 10.2L21.8 11.8H15.5133C14.8571 11.8 14.4093 11.8 14.0659 11.8304C13.7285 11.8592 13.5568 11.9104 13.4372 11.9744C13.1487 12.1278 12.9141 12.3726 12.7671 12.6736C12.7058 12.7984 12.6567 12.9776 12.6291 13.3296C12.6 13.688 12.6 14.1552 12.6 14.84V24.76C12.6 25.4448 12.6 25.912 12.6291 26.2704C12.6567 26.6224 12.7058 26.8016 12.7671 26.9264C12.9141 27.2274 13.1487 27.4722 13.4372 27.6256C13.5568 27.6896 13.7285 27.7408 14.0659 27.7696C14.4109 27.8 14.8571 27.8 15.5133 27.8H25.02C25.6763 27.8 26.124 27.8 26.4675 27.7696C26.8048 27.7408 26.9765 27.6896 27.0961 27.6256C27.3846 27.4722 27.6192 27.2274 27.7662 26.9264C27.8275 26.8016 27.8766 26.6224 27.9042 26.2704C27.9333 25.9104 27.9333 25.4448 27.9333 24.76V18.2L29.4667 16.6V24.792C29.4667 25.4368 29.4667 25.968 29.4329 26.4016C29.3977 26.8512 29.3225 27.2656 29.1324 27.6528C28.8384 28.2549 28.3693 28.7444 27.7923 29.0512C27.4197 29.2496 27.0241 29.328 26.5932 29.3648C26.1792 29.4 25.6686 29.4 25.0522 29.4H15.4827C14.8647 29.4 14.3557 29.4 13.9401 29.3648C13.5093 29.328 13.1121 29.2496 12.7411 29.0512C12.164 28.7444 11.6949 28.2549 11.4009 27.6528C11.2108 27.264 11.1357 26.8512 11.1004 26.4016C11.0667 25.9696 11.0667 25.4368 11.0667 24.792V14.808C11.0667 14.1632 11.0667 13.632 11.1004 13.1984C11.1357 12.7488 11.2108 12.3344 11.4009 11.9472C11.6949 11.3451 12.164 10.8556 12.7411 10.5488C13.1137 10.3504 13.5093 10.272 13.9401 10.2352C14.3541 10.2 14.8647 10.2 15.4827 10.2H23.3333Z" fill="#060A6E"/>
</svg>
