<svg width="30" height="30" viewBox="0 0 30 30" fill="none" xmlns="http://www.w3.org/2000/svg">
<path fill-rule="evenodd" clip-rule="evenodd" d="M14.0827 0.386658C13.6718 0.387116 13.2733 0.527101 12.9524 0.783681C12.6315 1.04026 12.4072 1.39822 12.3163 1.79892L11.8086 4.03892C10.9979 4.27359 10.2299 4.59786 9.50458 4.99466L7.56325 3.77012C7.21522 3.55044 6.80281 3.45569 6.39379 3.50144C5.98477 3.54719 5.60348 3.73071 5.31259 4.02186L4.01979 5.31466C3.72916 5.60541 3.54595 5.9863 3.50021 6.39485C3.45447 6.8034 3.54891 7.21536 3.76805 7.56319L4.99259 9.50879C4.59579 10.2299 4.27365 11.0021 4.03899 11.8107L1.79899 12.3184C1.39793 12.4093 1.0397 12.6339 0.783077 12.9553C0.526458 13.2766 0.386694 13.6757 0.386719 14.0869V15.9152C0.386694 16.3264 0.526458 16.7255 0.783077 17.0468C1.0397 17.3682 1.39793 17.5928 1.79899 17.6837L4.03899 18.1915C4.27365 19 4.59579 19.7701 4.99472 20.4955L3.76805 22.4368C3.54837 22.7848 3.45362 23.1972 3.49936 23.6063C3.54511 24.0153 3.72864 24.3966 4.01979 24.6875L5.31472 25.9803C5.60548 26.2709 5.98636 26.4541 6.39491 26.4998C6.80346 26.5456 7.21542 26.4511 7.56325 26.232L9.50672 25.0075C10.2299 25.4043 11.0001 25.7264 11.8086 25.9611L12.3163 28.2011C12.4073 28.6021 12.6319 28.9604 12.9532 29.217C13.2746 29.4736 13.6736 29.6134 14.0849 29.6133H15.9131C16.3244 29.6134 16.7234 29.4736 17.0448 29.217C17.3661 28.9604 17.5907 28.6021 17.6817 28.2011L18.1894 25.9611C19.0001 25.7264 19.7681 25.4064 20.4934 25.0075L22.4369 26.232C22.7847 26.4511 23.1966 26.5456 23.6052 26.4998C24.0137 26.4541 24.3946 26.2709 24.6854 25.9803L25.9782 24.6875C26.2688 24.3967 26.452 24.0158 26.4978 23.6073C26.5435 23.1987 26.4491 22.7868 26.2299 22.4389L25.0054 20.4955C25.4043 19.7701 25.7264 19.0021 25.9611 18.1915L28.2011 17.6837C28.6022 17.5928 28.9604 17.3682 29.217 17.0468C29.4736 16.7255 29.6134 16.3264 29.6134 15.9152V14.0869C29.6139 13.6753 29.4743 13.2758 29.2177 12.954C28.961 12.6322 28.6025 12.4073 28.2011 12.3163L25.9611 11.8107C25.7264 11 25.4065 10.232 25.0075 9.50666L26.2321 7.56532C26.4517 7.21729 26.5465 6.80488 26.5007 6.39586C26.455 5.98684 26.2715 5.60556 25.9803 5.31466L24.6875 4.02186C24.3966 3.73071 24.0153 3.54719 23.6063 3.50144C23.1973 3.45569 22.7849 3.55044 22.4369 3.77012L20.4955 4.99466C19.7649 4.59244 18.9923 4.27193 18.1915 4.03892L17.6817 1.79892C17.5907 1.39787 17.3661 1.03963 17.0448 0.783016C16.7234 0.526397 16.3244 0.386633 15.9131 0.386658H14.0849H14.0827ZM9.49605 7.13439C10.6407 6.33055 11.9479 5.78798 13.3254 5.54506L14.0849 2.19999H15.9131L16.6726 5.54506C18.0785 5.79253 19.3777 6.34506 20.5019 7.13226L23.4033 5.30399L24.6982 6.59679L22.8678 9.49813C23.6571 10.6224 24.2075 11.9216 24.455 13.3275L27.8001 14.0869V15.9152L24.455 16.6725C24.2131 18.0506 23.6712 19.3586 22.8678 20.504L24.6961 23.4053L23.4033 24.6981L20.5019 22.8699C19.3569 23.6722 18.0497 24.2133 16.6726 24.4549L15.9131 27.8H14.0849L13.3254 24.4549C11.9488 24.2124 10.6423 23.6706 9.49818 22.8677L6.59685 24.6981L5.30192 23.4053L7.13232 20.504C6.32895 19.3585 5.7871 18.0505 5.54512 16.6725L2.20005 15.9173V14.0891L5.54512 13.3296C5.7877 11.9531 6.32952 10.6466 7.13232 9.50239L5.30192 6.59466L6.59472 5.30186L9.49605 7.13226V7.13439ZM18.2555 15C18.2555 15.8628 17.9128 16.6903 17.3026 17.3004C16.6925 17.9106 15.865 18.2533 15.0022 18.2533C14.1393 18.2533 13.3118 17.9106 12.7017 17.3004C12.0916 16.6903 11.7489 15.8628 11.7489 15C11.7489 14.1372 12.0916 13.3097 12.7017 12.6995C13.3118 12.0894 14.1393 11.7467 15.0022 11.7467C15.865 11.7467 16.6925 12.0894 17.3026 12.6995C17.9128 13.3097 18.2555 14.1372 18.2555 15ZM20.1755 15C20.1755 16.372 19.6305 17.6879 18.6603 18.6581C17.6901 19.6283 16.3742 20.1733 15.0022 20.1733C13.6301 20.1733 12.3143 19.6283 11.3441 18.6581C10.3739 17.6879 9.82885 16.372 9.82885 15C9.82885 13.6279 10.3739 12.3121 11.3441 11.3419C12.3143 10.3717 13.6301 9.82666 15.0022 9.82666C16.3742 9.82666 17.6901 10.3717 18.6603 11.3419C19.6305 12.3121 20.1755 13.6279 20.1755 15Z" fill="white"/>
</svg>
