<svg width="30" height="30" viewBox="0 0 30 30" fill="none" xmlns="http://www.w3.org/2000/svg">
<path fill-rule="evenodd" clip-rule="evenodd" d="M14.1726 0.397345C14.4015 0.142657 14.7092 0 15.0297 0C15.3502 0 15.658 0.142657 15.8869 0.397345L29.6624 15.7802C29.8813 16.0412 30.0024 16.3887 30 16.7491C29.9976 17.1096 29.8719 17.4549 29.6495 17.7122C29.4271 17.9695 29.1253 18.1186 28.8079 18.1281C28.4904 18.1377 28.1822 18.0068 27.9481 17.7632L26.2542 15.8728V28.8417C26.2542 29.1489 26.1467 29.4435 25.9553 29.6607C25.764 29.878 25.5044 30 25.2338 30H4.82563C4.555 30 4.29545 29.878 4.10409 29.6607C3.91273 29.4435 3.80522 29.1489 3.80522 28.8417V15.8728L2.11134 17.7632C1.99805 17.8983 1.86197 18.0062 1.7112 18.0803C1.56043 18.1544 1.39806 18.1934 1.23375 18.1948C1.06945 18.1962 0.906582 18.16 0.754842 18.0885C0.603102 18.017 0.465596 17.9115 0.350515 17.7784C0.235435 17.6452 0.145132 17.4872 0.0849875 17.3136C0.0248426 17.14 -0.00391491 16.9545 0.000427803 16.7681C0.00477051 16.5816 0.0421246 16.3981 0.110265 16.2283C0.178406 16.0586 0.275939 15.9062 0.397056 15.7802L14.1726 0.397345ZM15.0297 3.33954L24.2134 13.5932V27.6833H20.1318V19.5749C20.1318 19.2677 20.0242 18.9731 19.8329 18.7558C19.6415 18.5386 19.382 18.4166 19.1113 18.4166H12.9889C12.7183 18.4166 12.4587 18.5386 12.2674 18.7558C12.076 18.9731 11.9685 19.2677 11.9685 19.5749V27.6833H5.84604V13.5932L15.0297 3.33954ZM14.0093 27.6833H18.0909V20.7332H14.0093V27.6833Z" fill="white"/>
</svg>
