<svg width="23" height="30" viewBox="0 0 23 30" fill="none" xmlns="http://www.w3.org/2000/svg">
<path fill-rule="evenodd" clip-rule="evenodd" d="M13.5655 2.25651C13.5663 2.74916 13.4061 3.22857 13.1093 3.6218C12.8125 4.01503 12.3954 4.30054 11.9215 4.4349C14.2618 4.5918 16.4552 5.63217 18.0573 7.34537C19.6595 9.05857 20.5508 11.3166 20.5507 13.6622V20.7522C20.5507 22.4086 20.6186 23.7465 22.0386 24.4576C22.2455 24.5612 22.4113 24.7317 22.5092 24.9413C22.6071 25.151 22.6314 25.3875 22.5782 25.6127C22.5249 25.8379 22.3972 26.0385 22.2157 26.182C22.0343 26.3256 21.8097 26.4037 21.5783 26.4037H12.6613C12.9743 26.6798 13.1959 27.0447 13.2964 27.4499C13.397 27.855 13.3718 28.2811 13.2242 28.6716C13.0766 29.062 12.8136 29.3983 12.4702 29.6356C12.1268 29.8729 11.7193 30 11.3019 30C10.8844 30 10.4769 29.8729 10.1335 29.6356C9.79012 29.3983 9.52713 29.062 9.37953 28.6716C9.23193 28.2811 9.20674 27.855 9.30729 27.4499C9.40784 27.0447 9.62938 26.6798 9.94242 26.4037H1.02747C0.796089 26.4037 0.571483 26.3256 0.390019 26.182C0.208555 26.0385 0.0808544 25.8379 0.0275934 25.6127C-0.0256676 25.3875 -0.00137149 25.151 0.0965478 24.9413C0.194467 24.7317 0.360278 24.5612 0.567135 24.4576C1.9872 23.7465 2.05501 22.4086 2.05501 20.7522V13.6622C2.05501 11.3162 2.94659 9.05796 4.54919 7.34471C6.15178 5.63145 8.34561 4.5913 10.6864 4.4349C10.2821 4.31989 9.91794 4.09448 9.63472 3.78395C9.3515 3.47343 9.16046 3.09011 9.08304 2.67702C9.00561 2.26393 9.04489 1.83744 9.19644 1.44543C9.34799 1.05343 9.60582 0.711431 9.94098 0.457848C10.2761 0.204266 10.6754 0.0491374 11.0938 0.00988299C11.5122 -0.0293714 11.9333 0.0488023 12.3098 0.235626C12.6863 0.42245 13.0032 0.710526 13.225 1.06751C13.4469 1.42449 13.5648 1.83623 13.5655 2.25651ZM11.3029 6.46943C9.39524 6.46943 7.56572 7.22724 6.21681 8.57615C4.8679 9.92506 4.1101 11.7546 4.1101 13.6622V20.855C4.1101 21.7716 4.11215 23.132 3.49357 24.3486H19.1122C18.4936 23.132 18.4957 21.7716 18.4957 20.855V13.6622C18.4957 11.7546 17.7379 9.92506 16.3889 8.57615C15.04 7.22724 13.2105 6.46943 11.3029 6.46943Z" fill="white"/>
</svg>
