<svg width="30" height="30" viewBox="0 0 30 30" fill="none" xmlns="http://www.w3.org/2000/svg">
<path fill-rule="evenodd" clip-rule="evenodd" d="M0 14.7769C0 10.8578 1.55684 7.09925 4.32805 4.32805C7.09925 1.55684 10.8578 0 14.7769 0C18.6959 0 22.4545 1.55684 25.2257 4.32805C27.9969 7.09925 29.5537 10.8578 29.5537 14.7769C29.5537 18.6959 27.9969 22.4545 25.2257 25.2257C22.4545 27.9969 18.6959 29.5537 14.7769 29.5537C10.8578 29.5537 7.09925 27.9969 4.32805 25.2257C1.55684 22.4545 0 18.6959 0 14.7769ZM14.7769 2.11959C12.3235 2.11967 9.92311 2.83273 7.8676 4.17203C5.81209 5.51132 4.1901 7.41911 3.19895 9.66332C2.2078 11.9075 1.89022 14.3914 2.28484 16.8128C2.67945 19.2342 3.76926 21.4887 5.42168 23.3021C6.42486 21.7308 7.80793 20.4377 9.44306 19.5423C11.0782 18.647 12.9126 18.1782 14.7769 18.1794C18.7082 18.1794 22.162 20.2231 24.1321 23.3021C25.7845 21.4887 26.8743 19.2342 27.2689 16.8128C27.6635 14.3914 27.3459 11.9075 26.3548 9.66332C25.3636 7.41911 23.7417 5.51132 21.6861 4.17203C19.6306 2.83273 17.2302 2.11967 14.7769 2.11959ZM22.5457 24.7702C21.7562 23.4094 20.6229 22.2801 19.2594 21.4954C17.8959 20.7106 16.3501 20.298 14.7769 20.299C13.2037 20.298 11.6579 20.7106 10.2944 21.4954C8.93086 22.2801 7.79756 23.4094 7.00803 24.7702C9.22749 26.5008 11.9624 27.4386 14.7769 27.4342C17.7041 27.4342 20.3994 26.4391 22.5457 24.7702ZM9.53368 12.5569C9.53368 11.1663 10.0861 9.83268 11.0694 8.84939C12.0527 7.8661 13.3863 7.31369 14.7769 7.31369C16.1675 7.31369 17.5011 7.8661 18.4844 8.84939C19.4677 9.83268 20.0201 11.1663 20.0201 12.5569C20.0201 13.9475 19.4677 15.2811 18.4844 16.2644C17.5011 17.2477 16.1675 17.8001 14.7769 17.8001C13.3863 17.8001 12.0527 17.2477 11.0694 16.2644C10.0861 15.2811 9.53368 13.9475 9.53368 12.5569ZM14.7769 9.43328C14.3667 9.43328 13.9605 9.51408 13.5815 9.67105C13.2025 9.82803 12.8582 10.0581 12.5682 10.3482C12.2781 10.6382 12.048 10.9826 11.891 11.3615C11.7341 11.7405 11.6533 12.1467 11.6533 12.5569C11.6533 12.9671 11.7341 13.3733 11.891 13.7522C12.048 14.1312 12.2781 14.4756 12.5682 14.7656C12.8582 15.0557 13.2025 15.2857 13.5815 15.4427C13.9605 15.5997 14.3667 15.6805 14.7769 15.6805C15.6053 15.6805 16.3998 15.3514 16.9856 14.7656C17.5714 14.1798 17.9005 13.3853 17.9005 12.5569C17.9005 11.7285 17.5714 10.934 16.9856 10.3482C16.3998 9.76237 15.6053 9.43328 14.7769 9.43328Z" fill="white"/>
</svg>
