<svg width="296" height="193" viewBox="0 0 296 193" fill="none" xmlns="http://www.w3.org/2000/svg">
<path fill-rule="evenodd" clip-rule="evenodd" d="M91.0292 74.1442C92.5844 68.0969 94.0502 61.9181 96.3578 56.1065C97.8022 52.4696 99.3327 48.8659 100.866 45.2659C101.078 44.7662 101.168 44.2844 101.581 44.0355C102.134 43.7033 103.277 43.7104 103.9 43.5961C112.754 41.9722 121.701 40.7328 130.676 40.0355C140.919 39.2398 150.905 39.6039 161.041 41.273C169.708 42.7004 178.291 44.6678 186.779 46.9206C188.027 47.2516 189.273 47.5897 190.516 47.9374C191.096 48.0993 192.058 48.182 192.563 48.5201C193.643 49.2427 194.009 52.2037 194.413 53.458C194.955 55.1395 195.271 57.4493 196.316 58.8798C197.872 61.0087 200.241 62.8556 202.17 64.6257C208.902 70.803 216.281 76.4382 224.975 79.4923C238.425 84.2171 252.608 87.1784 266.541 90.1062C266.866 90.1743 267.19 90.2421 267.514 90.3093C263.908 94.3034 260.3 98.2976 256.694 102.292C254.66 104.544 252.627 106.795 250.593 109.047C249.548 110.204 249.662 110.411 248.184 110.089C240.775 108.472 233.379 106.71 226.105 104.562C222.538 103.509 218.911 102.416 215.593 100.71C211.026 98.3629 206.74 95.4611 202.568 92.481C198.838 89.8167 195.197 87.0294 191.62 84.1633C190.915 83.5985 188.372 80.8748 187.546 81.0522C186.835 81.2051 185.603 82.8245 185.082 83.296C183.704 84.5435 182.32 85.7851 180.928 87.0167C178.712 88.976 176.449 91.3759 173.861 92.8507C171.133 94.405 168.007 95.4639 165.129 96.7015C163.523 97.3916 161.916 98.0793 160.308 98.7654C159.888 98.9444 159.302 99.3339 158.849 99.3435C157.509 99.3719 155.564 98.2827 154.321 97.8585C151.128 96.7686 147.958 95.6094 144.822 94.3669C138.124 91.7131 130.764 88.8299 125.252 84.0549C124.29 83.222 123.351 82.2894 122.714 81.1766C122.494 80.7908 122.165 80.2537 122.143 79.7979C122.107 79.0715 122.515 78.9291 123.123 78.4749C126.258 76.1316 129.638 74.0894 132.963 72.0301C133.744 71.5464 134.527 71.0647 135.312 70.5878L96.4665 73.7073C94.6539 73.8531 92.8417 73.9983 91.0292 74.1442Z" fill="white"/>
<path fill-rule="evenodd" clip-rule="evenodd" d="M148.873 0.180279C152.977 0.367477 157.185 0.558236 161.253 1.13599C165.309 1.71127 169.093 3.18353 172.758 4.96634C179.367 8.18023 186.122 12.0871 190.372 18.2693C192.36 21.1599 193.981 24.1865 196.724 26.4619C197.366 26.9938 198.065 27.6335 198.917 27.7964C199.594 27.9258 200.191 27.6518 200.855 27.619C202.12 27.5561 202.6 28.2234 202.6 29.4807C203.55 29.1015 204.584 28.7584 205.621 28.8977C206.487 29.0145 207.176 29.5368 208.007 29.7563C209.508 30.1526 210.977 29.56 212.404 29.1182C216.009 28.0029 219.969 27.1583 223.757 27.5561C226.251 27.8184 229.274 28.9002 227.983 32.1135C226.911 34.779 222.905 36.1283 220.375 36.7916C218.222 37.3557 215.328 36.8522 215.51 39.8218C215.637 41.8948 215.951 44.1182 218.154 44.7907C219.362 45.1594 223.642 45.709 221.143 47.5794C219.297 48.9604 218.653 51.3915 217.249 53.2174C215.46 55.5445 213.034 57.4258 210.198 58.2751C207.026 59.2256 203.669 59.0432 200.409 59.412C202.705 62.5798 206.019 64.7583 209.036 67.1671C212.208 69.6999 215.268 72.4679 218.939 74.2733C222.229 75.8917 225.784 77.0153 229.183 78.3876C232.752 79.8288 236.346 81.2534 240.031 82.3764C247.462 84.641 255.279 86.2229 262.92 87.6122C266.69 88.298 270.387 88.1973 274.196 88.2583C278.103 88.3212 282.007 89.0061 285.842 89.7095C287.701 90.0511 289.578 90.2663 291.437 90.6059C292.329 90.7691 295.86 91.1285 295.987 92.4352C296.192 94.5629 293.891 95.7556 292.206 96.3491C291.486 96.6027 290.327 96.5655 289.704 96.9142C289.03 97.2913 289.293 97.8461 289.216 98.5762C289.103 99.6373 288.536 100.401 287.665 100.989C286.949 101.473 286.086 101.454 286.58 102.371C286.808 102.794 287.377 103.06 287.64 103.506C287.94 104.015 288.078 104.573 288.017 105.159C287.91 106.183 287.233 106.965 286.288 107.328C284.779 107.907 283.007 107.497 281.461 107.309C278.873 106.995 276.248 106.963 273.695 106.397C271.033 105.807 268.443 104.897 265.778 104.293C264.412 103.983 263.042 103.723 261.707 103.294C260.838 103.014 259.582 102.288 258.657 102.516C257.79 102.729 257.113 103.775 256.546 104.383C255.764 105.221 255.007 106.081 254.212 106.908C253.685 107.455 253.145 107.991 252.57 108.488C252.383 108.649 251.228 109.355 251.212 109.544C251.167 110.08 252.427 110.071 252.697 110.283C254.266 111.523 251.909 112.308 250.892 112.245C248.547 112.102 246.191 111.815 243.869 111.47C238.34 110.65 232.828 109.765 227.541 107.913C222.313 106.081 217.211 104.133 212.375 101.403C207.732 98.7827 203.242 95.8203 198.858 92.7922C196.73 91.3227 194.588 89.8003 192.791 87.9283C191.034 86.0975 189.602 83.9955 188.145 81.9269C184.656 85.2965 181.298 88.8401 177.55 91.9292C173.984 94.8676 169.698 96.4374 165.551 98.3459C165.686 99.2131 169.739 99.7324 170.479 99.9578C173.86 100.986 177.105 102.637 180.393 103.932C185.864 106.086 191.055 108.888 192.877 114.87C194.668 120.75 192.591 126.67 190.057 131.983C187.066 138.254 183.513 144.063 179.219 149.531C177.392 151.857 175.424 153.998 173.42 156.164C171.709 158.012 170.243 160.201 170.96 162.827C172.336 162.398 172.588 163.471 171.688 164.38C170.888 165.188 169.506 165.345 168.438 165.479C165.2 165.885 161.855 165.742 158.614 165.44C152.712 164.89 146.797 163.401 141.453 160.838C138.795 159.563 137.833 161.619 136.005 163.211C134.566 164.464 132.586 165.276 131.492 166.897C130.593 168.23 131.18 170.337 133.048 169.838C134.502 169.449 135.669 167.827 137.209 167.765C139.941 167.654 134.786 171.552 134.126 172.028C135.432 173.196 136.913 171.594 138.23 171.327C139.493 171.071 139.845 171.724 139.172 172.777C138.647 173.598 136.999 174.179 138.095 175.177C139.004 176.005 141.018 176.44 142.133 176.802C145.612 177.934 149.074 178.738 152.696 179.255C153.866 179.422 155.741 179.315 156.689 180.144C157.94 181.238 157.337 183.05 156.704 184.303C154.306 189.049 149.319 191.381 144.198 191.723C141.044 191.933 137.861 191.73 134.697 191.9C131.23 192.086 127.755 192.364 124.28 192.249C118.693 192.065 115.139 188.028 112.354 183.588C110.585 180.767 108.954 177.864 107.422 174.909C106.824 173.754 105.571 172.558 105.358 171.26C105.165 170.092 105.911 169.155 106.635 168.328C108.541 166.154 110.833 164.494 113.073 162.697C114.352 161.671 114.844 160.821 115.414 159.328C115.893 158.071 116.815 157.533 117.627 156.53C118.519 155.427 118.239 155.232 117.543 154.33C116.814 153.386 117.1 151.995 117.407 150.926C117.845 149.393 118.787 149.056 120.193 148.562C121.475 148.112 122.562 147.321 123.698 146.589C129.313 142.968 134.603 138.872 140.287 135.353C145.895 131.881 151.756 128.813 157.108 124.939C152.762 124.355 148.931 122.008 144.831 120.619C142.727 119.906 140.643 119.144 138.607 118.252C137.83 117.911 136.924 117.608 136.23 117.107C135.533 116.603 134.998 115.941 134.267 115.465C132.534 114.334 130.473 113.69 128.609 112.808C126.597 111.857 124.61 110.816 122.739 109.605C120.993 108.473 119.316 107.181 117.864 105.687C116.707 104.497 115.582 102.946 113.945 102.399C114.117 104.679 116.942 106.568 118.49 107.94C121.003 110.167 123.615 112.059 126.423 113.899C123.273 116.597 119.434 118.354 115.745 120.177C111.597 122.226 107.565 124.498 103.434 126.579C99.9343 128.342 96.2526 129.701 92.6953 131.339C88.8578 133.106 84.9077 134.588 80.9036 135.933C77.2801 137.15 73.8684 138.447 70.4492 140.155C67.1254 141.816 63.5687 143.085 60.013 144.151C56.018 145.348 52.2062 146.487 48.3638 148.129C44.8991 149.609 41.4202 150.555 37.7533 151.36C36.5421 151.625 34.9868 152.113 34.1385 150.941C33.4954 150.052 33.3988 148.682 33.2142 147.637C32.5074 143.638 32.4513 139.575 31.8154 135.569C29.4018 136.297 27.1156 137.193 24.5692 137.309C22.9685 137.382 21.9957 137.547 21.5969 139.294C22.5229 139.399 25.8316 139.445 25.9211 140.756C26.0019 141.939 23.9998 141.951 23.2899 141.984C22.0195 142.041 20.868 141.833 20.1899 143.076C21.1891 143.445 23.4038 142.773 23.8463 144.116C24.4163 145.849 21.8278 145.845 20.8965 145.984C19.2716 146.228 19.4385 147.504 19.5499 148.868C19.6964 150.662 19.8072 152.459 20.0497 154.244C20.5674 158.059 21.4544 161.816 21.8746 165.645C22.2378 168.956 22.4412 172.136 20.0744 174.774C19.123 175.835 17.8003 177.056 16.3048 177.182C14.787 177.31 14.8146 176.247 13.8699 175.465C13.2909 174.986 12.5242 174.888 11.8422 174.629C11.0126 174.315 10.2078 173.855 9.46243 173.377C8.08872 172.498 6.88797 171.407 5.91672 170.096C2.11829 164.964 0.760347 157.297 0.384124 151.075C0.144817 147.119 0.383536 143.157 0.746662 139.215C0.942219 137.093 1.13899 134.969 1.39588 132.853C1.47533 132.198 1.6084 131.541 1.65782 130.883C1.68609 130.506 1.50453 129.746 1.6968 129.385C1.45124 129.845 1.01634 129.504 0.58445 129.142C-0.307047 128.393 -0.0325977 126.956 0.444253 125.971C1.88106 123.005 6.18699 122.889 8.98827 122.659C16.5181 122.039 23.6716 120.02 30.8806 117.864C29.8632 116.34 31.4633 115.335 32.7037 114.811C34.6165 114.004 36.5916 113.294 38.5224 112.524C42.8822 110.783 47.1513 109.16 51.7167 108.049C55.852 107.043 59.8536 105.373 63.9335 104.149C68.149 102.883 72.2883 101.438 76.4345 99.9643C84.6466 97.0461 92.8662 94.0644 100.836 90.5245C102.85 89.6297 104.775 88.5921 106.719 87.5571C108.298 86.7164 110.152 86.1 111.491 84.8853C112.769 83.7255 113.534 82.1129 114.924 81.0596C116.176 80.1112 117.888 80.0982 118.925 78.9201C120.327 77.3274 122 76.6273 123.904 75.6932C124.515 75.3932 128.54 73.8773 128.459 73.0168C125.582 73.0168 122.629 73.8726 119.785 74.2711C116.776 74.6925 113.769 75.161 110.739 75.3941C105.828 75.7716 100.919 75.6694 96.0287 75.1371C95.298 75.0579 92.3662 74.456 91.8609 75.2396C91.4757 75.8369 92.4333 76.5478 92.4426 77.1896C92.4569 78.1312 91.698 78.6362 90.8385 78.3089C89.165 77.6726 89.4102 74.9764 89.5666 73.6082C89.8656 70.991 90.531 68.3976 91.1128 65.8333C87.6602 67.5904 84.3819 69.846 81.4089 72.3251C79.1059 74.2454 77.0262 76.849 74.3238 78.2179C71.7292 79.5329 70.1863 78.4111 70.2928 75.5167C70.3414 74.1906 70.6102 72.932 71.0697 71.6969C71.2867 71.1136 72.1781 69.4617 71.7604 68.84C69.389 70.7309 67.0334 72.6264 64.5441 74.3622C62.7842 75.5889 60.2329 77.5027 57.9355 77.0156C55.9062 76.5855 56.1047 74.3532 56.7481 72.849C57.3057 71.5443 58.3083 70.3854 59.3018 69.389C60.1236 68.5654 61.2915 67.8276 61.703 66.686C58.9773 67.9105 56.1715 68.8372 53.3162 69.6977C51.286 70.3098 49.8667 72.8512 47.5058 72.4756C45.1421 72.0997 46.0834 69.1794 47.0268 67.9096C47.6869 67.0213 48.6003 66.2389 49.4862 65.5825C50.3497 64.9419 51.664 64.3839 52.0892 63.3182C49.3279 63.8365 46.5519 64.7372 43.7108 64.5713C42.0236 64.4725 39.2073 63.7359 39.5404 61.4682C39.8776 59.1717 42.9358 58.9959 44.6554 58.5677C46.9999 57.9834 49.2437 56.887 51.5061 56.0507C56.0703 54.3633 60.7233 53.0099 65.393 51.6649L66.8681 51.2401C72.1391 49.7211 77.4399 48.4275 82.7762 47.1655C85.4139 46.5419 88.0423 45.8617 90.7004 45.3294C93.2724 44.8145 95.8853 44.5163 98.4376 43.9011C96.2866 40.6547 98.8912 37.9873 101.704 36.4423C99.92 36.0816 98.1059 35.8649 96.3377 35.4277C94.8274 35.0543 93.3718 34.4808 91.8503 34.1505C89.2359 33.5829 86.6245 33.2845 84.3924 31.6658C80.1744 28.6064 79.8156 23.7379 83.3698 20.054C86.9564 16.336 92.2209 14.595 97.2873 14.4219C102.958 14.2287 109.41 15.3276 114.717 17.3352C117.323 18.3213 120.037 19.5753 122.272 21.255C123.792 22.3972 126.195 24.5865 128.235 24.5865C125.792 21.6318 122.793 18.5764 122.352 14.5749C121.934 10.7866 123.653 6.75999 126.537 4.30932C132.299 -0.585418 141.809 -0.142317 148.873 0.180279ZM116.021 162.552C114.517 164.891 112.437 166.79 110.473 168.731C109.795 169.401 108.436 170.252 108.37 171.301C108.317 172.158 109.368 173.12 109.826 173.793C112.253 177.352 114.25 181.282 117.214 184.443C120.564 188.014 124.387 188.709 129.13 188.719C134.397 188.73 139.734 189.389 144.992 189.112C149.445 188.876 153.835 186.893 156.05 182.863C154.607 182.119 152.554 182.474 150.99 182.49C148.858 182.513 146.777 182.474 144.671 182.104C142.762 181.768 140.875 181.263 139.079 180.527C138.15 180.146 137.231 179.711 136.376 179.181C135.749 178.794 135.278 178.201 134.663 177.821C132.393 176.419 129.772 180.875 127.346 180.789C125.86 180.737 126.397 179.276 127.016 178.459C128.132 176.982 130.079 176.071 131.549 174.995C130.181 173.735 128.634 175.056 127.331 175.714C125.702 176.537 124.009 177.548 122.189 177.857C122.325 175.511 125.517 174.254 127.277 173.3C128.06 172.875 129.042 172.481 129.235 171.547C129.38 170.845 129.132 169.846 129.058 169.137C128.965 168.236 128.896 167.948 127.936 167.693C126.771 167.385 125.599 167.474 124.433 167.089C121.24 166.035 118.757 164.471 116.021 162.552ZM12.2718 125.587C11.4923 125.804 10.7046 125.991 9.91287 126.158C8.34568 126.488 6.77641 126.831 5.20387 127.132C4.41507 127.282 3.53924 127.187 3.30681 127.939C3.18733 128.325 3.488 129.019 3.53955 129.419C3.63223 130.142 3.6382 130.875 3.64684 131.603C3.72907 138.31 2.3267 144.978 2.94415 151.684C3.46565 157.352 4.68624 164.519 8.85021 168.74C10.6474 170.562 12.8586 172.541 15.1216 173.786C16.8955 174.761 19.3738 172.312 19.736 170.617C19.9958 169.402 19.5626 168.12 19.2809 166.948C18.9192 165.448 18.553 163.948 18.195 162.446C17.4309 159.241 16.7358 156.006 16.5163 152.711C16.4441 151.629 16.4596 150.586 16.5206 149.508C16.5537 148.923 16.8293 147.512 16.42 147.011C15.8905 146.363 14.6806 146.786 13.9642 146.842C13.1786 146.902 12.4119 146.856 11.6445 146.655C9.81781 146.178 9.49775 144.726 11.4923 144.054C12.8848 143.584 15.4303 144.265 16.6002 143.361C17.9749 142.299 15.1967 142.154 14.548 142.126C13.684 142.089 10.8188 142.315 10.9651 140.705C11.0733 139.512 13.5398 139.433 14.4028 139.382C16.2466 139.274 18.5793 139.964 19.3762 137.741C19.6955 136.851 17.7727 136.399 17.29 135.957C16.1175 134.884 15.7332 133.044 15.6323 131.537C15.5332 130.054 16.9925 124.916 14.7691 124.78C14.0863 124.738 12.9516 125.399 12.2718 125.587ZM121.625 155.243C120.316 156.801 119.185 158.507 117.966 160.135C120.825 161.712 123.749 162.981 126.704 164.337C128.048 164.954 128.991 165.443 130.291 164.508C131.224 163.837 131.924 162.883 132.835 162.186C134.144 161.184 135.512 160.266 136.853 159.31C132.894 157.866 128.874 156.598 124.917 155.151C123.436 154.61 122.693 153.97 121.625 155.243ZM89.0247 150.295C89.8712 151.153 88.2414 153.531 87.9203 154.345C90.5456 154.137 93.1489 153.723 95.7268 153.19C96.6046 153.009 96.281 154.078 95.9525 154.43C95.5463 154.866 94.7338 154.998 94.1908 155.154C92.1928 155.726 90.1431 156.002 88.0924 156.308C89.0309 157.462 91.289 159.268 90.5617 161.004C89.2504 159.874 88.3076 158.371 86.857 157.394C86.4378 158.019 85.5684 160.224 84.6157 160.089C83.1196 159.877 84.6352 157.3 84.9479 156.679C83.9407 156.679 80.1556 157.563 79.6273 156.324C79.087 155.055 82.7397 155.096 83.415 154.797L83.2893 154.643L83.1626 154.491C82.6579 153.882 82.1731 153.282 82.1046 152.447C83.2341 152.835 83.9884 154.605 85.2297 154.631C86.4065 154.655 86.932 152.887 87.3515 152.049C87.5899 151.573 88.3996 149.661 89.0247 150.295ZM216.395 133.615C218.926 135.75 217.206 140.055 215.291 141.99C213.146 144.158 208.369 146.15 205.649 143.94C204.161 142.73 204.698 140.885 205.064 139.276C205.472 137.487 205.725 135.98 207.207 134.753C209.511 132.844 213.827 131.45 216.395 133.615ZM211.257 134.856C208.788 135.38 206.286 137.847 205.699 140.389C204.929 143.723 208.391 143.966 210.671 143.465C213.539 142.835 216.587 140.732 216.733 137.434C216.859 134.587 213.176 134.448 211.257 134.856ZM31.5816 120.443C27.8841 121.819 24.4085 123.702 20.529 124.518C19.3453 124.768 18.8589 125.04 18.5663 126.143C18.156 127.686 17.7674 129.25 18.0603 130.863C18.6681 134.211 23.328 133.8 25.9155 133.669C27.2441 133.602 29.7991 133.844 30.9515 133.016C31.7937 132.411 31.4404 131.275 31.3091 130.392C30.8184 127.088 31.3537 123.745 31.5816 120.443ZM233.176 88.5398C231.814 88.7965 229.461 89.9059 231.413 91.2967C232.715 92.224 234.653 92.3367 236.183 92.5658C239.171 93.0132 242.361 93.3999 244.954 95.0852C249.759 98.2081 249.17 104.101 247.733 108.924C248.768 109.534 251.808 105.549 252.381 104.901C254.705 102.272 257.037 99.6506 259.379 97.0386C260.382 95.9215 252.164 92.0624 251.425 91.715C247.521 89.8786 243.877 88.6695 239.498 88.3543C237.422 88.2048 235.231 88.1525 233.176 88.5398ZM216.226 78.765C215.853 79.7053 216.507 80.1314 217.107 80.7813C220.464 84.4122 222.828 89.5513 224.697 94.0588C225.629 96.3067 226.282 98.5731 226.859 100.928C227.426 103.239 229.224 103.856 231.379 104.512C236.344 106.023 241.569 106.529 246.551 108.021C247.886 108.421 248.148 105.487 248.231 104.743C248.47 102.626 248.248 100.416 247.136 98.5502C245.032 95.0227 240.816 94.2728 237.054 93.6718C234.903 93.3284 232.069 92.9736 230.367 91.5032C229.513 90.7651 229.392 89.9185 230.058 89.0017C231.273 87.3295 233.412 87.1146 235.323 86.9781C236.254 86.9118 242.018 87.4942 242.207 86.8124C239.337 85.8773 236.391 85.2606 233.563 84.1914C231.357 83.357 229.134 82.5693 226.908 81.7885L224.682 81.0082C222.418 80.2147 220.345 79.2489 218.173 78.2934C217.357 77.9346 216.609 77.8014 216.226 78.765ZM264.907 94.0638C264.188 95.0304 263.475 95.8416 262.937 96.9275C262.308 98.1941 261.265 99.0023 260.393 100.09C264.921 100.889 269.24 101.903 273.603 103.367C275.843 104.118 278.157 104.489 280.448 105.028C282.37 105.479 284.418 106.179 286.408 105.765C284.141 102.642 278.096 103.505 276.505 99.7228C275.422 97.1498 278.083 95.0973 280.26 94.6508C284.061 93.8709 288.114 93.8108 291.975 93.5328C292.015 92.0559 277.999 91.2911 276.614 91.1716C274.153 90.9586 271.585 90.4972 269.128 90.4121C266.849 90.3328 266.104 92.455 264.907 94.0638ZM211.423 83.261C210.073 84.5658 208.752 85.899 207.403 87.2056C206.516 88.0645 205.315 88.9795 204.616 90.0028C203.724 91.3094 205.287 91.9376 206.328 92.5559C208.958 94.117 211.674 95.5744 214.35 97.0594C216.753 98.3935 219.252 100.092 221.905 100.872C223.324 101.289 224.656 101.937 226.025 102.485C225.365 96.5615 221.963 91.1809 218.826 86.2424C218.105 85.1082 217.361 83.9902 216.641 82.8564C216.278 82.2857 215.605 80.9385 214.844 80.8224C213.719 80.6503 212.105 82.6022 211.423 83.261ZM280.209 98.3381C281.853 99.2803 283.502 99.759 285.357 99.0472C285.813 98.8611 286.265 98.6642 286.711 98.457C285.475 96.7714 281.82 97.7988 280.209 98.3381ZM144.007 77.7225C141.092 79.0365 137.974 80.3456 135.439 82.3281C134.503 83.0601 132.412 84.5977 132.901 85.9919C133.32 87.1858 135.635 88.2026 136.734 88.5664C142.517 90.4805 149.098 89.0881 154.423 92.6005C155.864 93.551 156.334 94.7933 157.404 96.0432C158.372 97.1733 159.597 97.0331 160.898 96.564C162.607 95.9481 164.181 95.0047 165.896 94.4C166.773 94.091 168.263 93.8861 168.354 92.703C168.783 87.1254 167.593 80.0199 162.676 76.6075C157.156 72.7769 149.542 75.2282 144.007 77.7225ZM140.881 90.7195C140.74 91.4267 146.211 92.707 146.806 92.8708C150.109 93.7808 153.196 95.9438 156.618 96.2928C157.213 94.966 152.473 92.8535 151.723 92.581C148.302 91.3388 144.474 91.1134 140.881 90.7195ZM248.318 88.2426C252.465 89.9421 256.486 92.023 259.963 94.9168C261.162 95.9147 264.075 91.179 264.728 90.453C259.203 90.2232 253.759 89.1693 248.318 88.2426ZM170.794 54.9293C166.948 57.4691 163.6 60.7904 159.378 62.7374C160.699 62.9454 162.141 62.0902 163.403 61.7902C164.631 61.4982 165.873 61.3057 167.07 60.8923C167.804 60.6384 170.838 58.9987 171.408 60.1099C172.297 61.846 166.031 63.047 165.141 63.343C162.132 64.3427 159.143 65.3899 156.165 66.4779C153.281 67.5319 150.399 68.6657 147.418 69.4224C144.391 70.1912 141.182 70.3891 138.271 71.583C135.698 72.6385 133.486 74.3854 131.004 75.6183C128.515 76.8546 125.685 77.6194 123.54 79.4595C125.873 81.9492 128.632 84.0342 131.651 85.6213C132.134 81.8244 136.585 79.6626 139.63 78.203C146.269 75.0213 156.238 70.2234 163.004 75.6152C167.949 79.5558 168.62 87.0332 168.62 92.8869C169.959 92.4605 171.182 91.7822 172.426 91.1419C173.288 90.6979 173.298 89.4625 173.406 88.6373C173.584 87.2861 173.949 85.9774 174.369 84.681C175.297 81.8135 176.459 79.0158 177.567 76.2143C179.359 71.6827 181.569 67.2133 182.67 62.4457C183.389 59.3343 184.244 53.9865 180.493 52.4421C177.247 51.1064 173.429 53.1886 170.794 54.9293ZM154.001 42.2651C153.374 42.6852 153.608 43.9457 153.651 44.578C153.807 46.8775 153.709 49.1867 153.786 51.4903C153.88 54.2973 153.9 59.4445 156.795 61.0186C158.775 62.0949 161.237 60.4821 162.817 59.3835C165.491 57.5258 167.944 55.3683 170.654 53.5549C173.867 51.4045 179.956 48.4303 183.031 52.4752C184.695 54.6642 184.461 57.9261 184.046 60.4731C183.498 63.8334 182.218 67.0207 180.947 70.1612C178.32 76.6459 175.578 83.2363 174.117 90.1003C177.448 88.1212 180.038 85.2686 182.945 82.7628C185.099 80.9054 188.299 78.7721 188.796 75.7452C188.909 75.0616 189.571 74.5745 190.026 74.1172C190.618 73.5218 191.036 72.919 191.411 72.1598C192.24 70.4826 192.778 68.671 193.118 66.8355C193.83 62.9851 193.49 59.1522 192.834 55.3244C192.537 53.5933 192.973 51.7358 192.569 50.0484C192.289 48.8768 191.462 48.9461 190.362 48.6795C186.4 47.72 182.431 46.7896 178.467 45.8387C176.857 45.4523 175.106 44.7275 173.434 44.7517C172.062 44.7715 170.909 45.5895 169.725 46.1821C167.781 47.155 164.69 48.8566 162.458 47.8894C159.856 46.762 162.888 44.2169 161.583 43.0128C160.689 42.1871 158.015 42.6821 156.802 42.4772C156.138 42.3648 154.611 41.8567 154.001 42.2651ZM194.941 75.518C193.048 75.8161 191.953 76.6366 190.911 78.2467C189.852 79.8833 189.726 80.6936 191.236 81.9742C192.864 83.3552 194.568 84.7194 196.297 85.9631C198.488 87.5394 200.919 88.7327 203.085 90.3477C204.033 91.0552 208.338 85.5101 209.085 84.75C210.115 83.701 211.173 82.6492 212.279 81.6835C212.682 81.3308 213.949 80.5128 213.95 79.9128C213.951 78.3959 210.587 77.0388 209.505 76.6212C207.08 75.6861 204.537 75.3084 201.953 75.2693C199.663 75.2347 197.209 75.16 194.941 75.518ZM203.372 68.8456C201.596 69.7887 199.74 70.5835 197.953 71.5071C197.318 71.8344 193.32 73.5141 193.522 74.5179C198.022 74.2327 202.502 73.4714 206.987 74.3423C209.001 74.7337 210.921 75.3895 212.604 76.5998C213.879 77.5157 214.851 79.2759 216.117 77.7092C213.532 76.245 211.205 74.3039 208.914 72.4193C207.911 71.5944 206.878 70.8185 205.86 70.016C205.255 69.5388 204.256 68.3765 203.372 68.8456ZM96.9365 46.9203C95.529 47.1178 94.157 47.4909 92.7746 47.811C87.1741 49.1081 81.5523 50.2725 75.9667 51.6451C64.8255 54.3825 53.3512 57.0223 42.728 61.4081C43.6213 62.3955 45.988 61.6803 47.0965 61.4868C49.2666 61.1075 51.3724 60.4452 53.5162 59.9452C55.613 59.4563 57.7175 58.8733 59.8316 58.4658C60.8054 58.2782 62.5228 58.0311 62.5622 59.4906C62.6179 61.5602 58.5971 63.1077 57.1212 63.8641C55.543 64.6728 54.0153 65.5667 52.513 66.5073C51.3253 67.251 49.135 68.2421 48.7499 69.72C52.6041 68.0873 56.4604 66.4615 60.2905 64.7737C61.7333 64.1378 63.195 63.539 64.5685 62.7634C65.4844 62.246 66.6631 61.3385 67.7474 61.257C69.216 61.1465 69.4593 62.4794 68.8404 63.5551C68.0663 64.9016 66.4687 65.6614 65.2933 66.6036C63.7954 67.8053 62.4696 69.2227 61.1206 70.5829C60.001 71.7118 58.559 72.8233 57.9745 74.3498C59.9873 75.0229 62.2745 72.8651 63.7536 71.7985C66.0779 70.1225 68.2431 68.2994 70.4606 66.4881C71.5951 65.5614 72.9472 64.061 74.4405 63.7842C76.3326 63.4334 76.176 65.5964 75.7168 66.7888C74.6913 69.454 72.2902 71.6762 72.1187 74.6808C72.0131 76.5304 73.5801 75.8264 74.6254 75.0845C76.3859 73.8349 77.5773 71.9307 79.175 70.4977C83.0227 67.0461 87.4267 64.1019 92.1863 62.0571C93.038 61.6911 93.3443 60.3774 93.6034 59.5879C93.9898 58.4094 94.4344 57.2669 94.8989 56.1151C95.9166 53.592 96.7514 50.8652 98.1775 48.5346C98.575 47.8847 99.6011 47.2221 98.7524 46.8401C98.2911 46.6323 97.413 46.8534 96.9365 46.9203ZM137.566 42.6524C136.124 42.8205 134.665 42.8054 133.22 42.9577C130.863 43.206 131.891 46.0734 131.511 47.8011C130.393 52.887 125.002 53.8475 120.917 51.4482C118.618 50.0979 117.238 48.1628 116.002 45.8991C115.297 44.6086 114.773 44.4012 113.315 44.7241C112.315 44.9458 111.404 44.8987 110.387 44.9724C109.106 45.0653 108.994 45.3368 108.968 46.5555C108.945 47.638 108.789 48.3876 108.069 49.2644C106.695 50.9342 104.392 52.0337 102.43 52.8728C100.465 53.7137 98.2385 54.3388 97.1591 56.3263C96.6148 57.3282 96.0318 58.5243 95.8742 59.6634C95.702 60.9078 96.1244 61.68 95.3986 62.8278C93.8901 65.2143 93.1987 67.8223 92.4358 70.5343C92.1872 71.4176 92.0891 71.7811 93.0535 72.0242C94.4375 72.3728 96.403 71.8437 97.823 71.7879C98.8363 71.7483 99.428 69.9621 99.7572 69.2385C100.397 67.831 101.183 66.4987 101.969 65.1667C103.75 62.1494 105.655 59.1522 107.983 56.5158C109.739 54.5262 112.333 52.0492 114.582 54.8451C116.774 57.5701 118.354 60.7613 120.99 63.1368C123.309 65.2258 125.698 65.2592 128.103 63.2792C130.471 61.3301 132.27 58.6705 133.741 56.017C135.333 53.1477 136.533 50.0843 138.084 47.1977C138.57 46.293 140.815 43.8454 140.131 42.797C139.669 42.0889 138.214 42.5769 137.566 42.6524ZM149.639 42.0267C148.37 42.0864 147.093 41.944 145.824 41.9186C143.527 41.8731 141.606 41.9536 140.453 44.1541C139.435 46.0964 138.568 48.1625 137.639 50.1512C135.62 54.4713 133.64 58.8921 130.541 62.5683C127.795 65.8252 124.249 67.4662 120.677 64.3548C119.094 62.9751 117.891 61.1954 116.754 59.4461C115.843 58.0435 114.804 55.5751 113.277 54.7574C111.576 53.8459 109.628 55.9368 108.587 57.0716C106.838 58.9791 105.377 61.2224 103.973 63.3885C102.954 64.9598 101.98 66.564 100.99 68.1533C100.589 68.7979 98.9549 70.9061 99.4986 71.7093C100.044 72.5143 102.706 71.9638 103.476 71.8901C105.315 71.7149 107.152 71.6517 108.991 71.4932C114.714 71.0012 120.352 69.7438 126.089 69.4082C129.869 69.1868 133.593 68.4564 137.313 67.7929C140.93 67.1476 144.571 66.7073 148.15 65.8546C150.254 65.353 152.362 64.8512 154.462 64.331C155.189 64.1511 158.623 63.6603 158.837 62.716C156.472 62.3033 155.23 61.3858 154.391 59.0788C153.341 56.1891 153.219 52.9691 153.129 49.9245C153.095 48.7532 153.089 47.5816 153.089 46.4097V45.004C153.088 44.1637 153.451 42.6388 152.694 42.0561C151.993 41.5167 150.451 41.9877 149.639 42.0267ZM196.589 60.6861C196.688 64.4935 196.007 68.331 194.443 71.8096C196.079 72.0716 198.025 70.0191 199.398 69.3317C199.927 69.0667 203.427 67.7947 202.255 66.8222C200.099 65.0338 198.685 62.5352 196.589 60.6861ZM243.507 63.7823C243.987 64.7292 243.394 65.9308 243.073 66.8287C245.569 67.4288 248.056 68.018 250.571 68.5273C252.467 68.9109 251.806 70.0479 250.16 69.9695C247.872 69.8605 245.742 68.8911 243.465 68.7651C241.296 68.6453 241.04 70.5389 239.191 70.9037C239.254 69.8618 240.097 69.1382 240.702 68.3564C239.704 67.8443 238.684 67.3684 237.716 66.8043C237.215 66.512 235.829 65.2865 236.363 64.6353C236.901 63.978 238.313 65.2097 238.816 65.4809C239.53 65.8667 240.956 66.7166 241.796 66.473C242.947 66.1389 242.708 64.4864 243.507 63.7823ZM207.534 38.9744C206.521 39.0447 205.419 38.7041 204.46 39.1497C203.503 39.5943 202.362 40.5674 201.562 41.2421C200.788 41.8954 200.403 42.6886 199.44 43.0744C198.478 43.4599 197.492 43.4259 197.122 44.6018C197.994 44.8411 199.707 44.5238 200.391 45.165C201.385 46.0982 199.65 47.1252 198.931 47.4191C197.899 47.8401 197.055 47.7036 196 47.6243C195.541 47.5903 195.545 47.4491 195.169 47.6767C193.774 48.5195 194.739 51.5182 195.192 52.6124C197.405 57.9667 204.968 56.1634 209.33 55.6151C207.942 54.2171 205.669 52.6749 205.554 50.4788C205.52 49.8248 205.682 48.6563 206.522 48.6018C207.193 48.5585 207.999 49.5725 208.417 49.9722C209.656 51.1565 211.26 53.1211 213.052 53.2911C215.447 53.5183 217.291 49.6381 218.284 47.946C217.063 47.7166 215.725 47.7302 215.015 46.532C214.172 45.108 214.157 42.9267 214.172 41.3235C214.184 39.9587 214.619 38.4654 212.794 38.3982C211.113 38.3366 209.231 38.8567 207.534 38.9744ZM46.6624 42.4753C46.3134 43.2367 44.7966 43.5352 44.1306 43.7389C41.5976 44.5123 39.1243 45.4951 36.6548 46.4589C31.6692 48.4049 26.7382 50.5543 22.1855 53.414C21.3346 53.949 21.7517 52.9174 21.9724 52.5455C22.4678 51.7117 23.5088 51.1215 24.2862 50.611C26.3901 49.2282 28.6185 48.2569 30.9447 47.3321C35.5996 45.4818 40.3253 43.52 45.0991 42.0211C45.653 41.8471 47.1315 41.4523 46.6624 42.4753ZM104.484 46.2456C103.559 46.3413 102.475 46.131 101.585 46.4329C100.425 46.8264 100.616 47.6228 100.273 48.6018C99.6909 50.2636 99.0676 51.9117 98.4602 53.5648C100.709 53.4598 102.863 51.6798 104.769 50.6552C105.847 50.075 109.599 48.1501 108.467 46.3877C107.751 45.2721 105.512 46.1391 104.484 46.2456ZM130.078 43.3484C128.686 43.3231 127.154 43.7448 125.745 43.8147C123.855 43.9086 121.995 44.268 120.107 44.355C118.866 44.4123 117.647 44.6674 116.418 44.8346C117.64 47.6658 120.026 50.1422 123.023 51.1677C125.388 51.9767 128.697 52.1142 130.313 49.8756C131.242 48.5876 132.761 43.3967 130.078 43.3484ZM202.589 31.6537C201.071 32.6624 199.854 34.1077 198.585 35.3973C195.408 38.627 192.12 42.0849 190.745 46.5122C190.556 47.1184 191.989 47.6544 192.376 47.6779C193.196 47.7274 193.362 47.3141 193.684 46.6221C194.48 44.908 194.785 42.993 196.059 41.5316C197.611 39.7497 199.479 38.0124 201.281 36.4816C202.505 35.4413 205.505 33.9768 205.857 32.2568C206.273 30.2238 203.509 31.0431 202.589 31.6537ZM163.42 43.4181C162.562 43.668 162.493 44.4625 162.297 45.3186C161.508 48.7579 169.491 45.0052 170.602 44.443C170.233 43.3389 166.595 43.5401 165.752 43.4968C165.096 43.4633 164.055 43.2336 163.42 43.4181ZM210.575 45.2046C209.392 45.2502 209.938 40.4188 211.282 40.9046C212.436 41.3217 211.334 45.1749 210.575 45.2046ZM44.2761 39.6494C42.4648 41.2127 39.6209 41.4223 37.3691 41.9242C34.0505 42.6636 30.7608 43.6061 27.4692 44.4566C25.3907 44.9935 26.5607 43.7129 27.6017 43.232C29.391 42.4044 31.4169 41.9635 33.3294 41.5084C35.3999 41.0154 37.5158 40.6863 39.5745 40.1488C41 39.7763 42.8386 38.8236 44.2761 39.6494ZM100.627 6.04847C102.64 6.41785 104.65 7.06187 106.414 8.11613C107.875 8.98927 107.817 10.3473 105.965 9.55929C97.3263 5.88251 86.6072 8.10963 78.1715 11.3653C77.2408 11.7245 77.3101 10.9411 77.5916 10.3374C77.9786 9.50541 78.8065 9.02271 79.601 8.6363C81.9885 7.47552 84.7408 6.81882 87.3366 6.33673C91.663 5.53295 96.2804 5.25058 100.627 6.04847ZM101.89 0.767231C102.987 1.06478 104.248 1.80323 104.92 2.74015C105.705 3.83622 105.081 4.39663 103.99 3.752C102.774 3.03243 101.661 2.31504 100.264 1.93482C99.5268 1.73449 99.5569 1.27223 100.086 0.86631C100.582 0.486279 101.351 0.621089 101.89 0.767231Z" fill="#0D13AB"/>
</svg>
