<svg width="31" height="42" viewBox="0 0 31 42" fill="none" xmlns="http://www.w3.org/2000/svg">
<path fill-rule="evenodd" clip-rule="evenodd" d="M18.6028 3.09443C18.6039 3.77001 18.3842 4.42745 17.9772 4.96669C17.5702 5.50594 16.9983 5.89747 16.3483 6.08172C19.5577 6.29688 22.5655 7.72357 24.7626 10.0729C26.9597 12.4223 28.1819 15.5188 28.1819 18.7354V28.4582C28.1819 30.7297 28.2749 32.5643 30.2223 33.5394C30.5059 33.6816 30.7333 33.9154 30.8676 34.2029C31.0019 34.4903 31.0352 34.8147 30.9622 35.1235C30.8891 35.4323 30.714 35.7074 30.4652 35.9043C30.2163 36.1011 29.9083 36.2082 29.591 36.2083H17.3628C17.7921 36.5869 18.0959 37.0873 18.2338 37.6429C18.3717 38.1984 18.3371 38.7828 18.1347 39.3183C17.9323 39.8537 17.5717 40.3148 17.1008 40.6402C16.6299 40.9657 16.071 41.14 15.4986 41.14C14.9262 41.14 14.3673 40.9657 13.8964 40.6402C13.4255 40.3148 13.0649 39.8537 12.8624 39.3183C12.66 38.7828 12.6255 38.1984 12.7634 37.6429C12.9013 37.0873 13.2051 36.5869 13.6344 36.2083H1.40901C1.0917 36.2082 0.783693 36.1011 0.534846 35.9043C0.285998 35.7074 0.110878 35.4323 0.0378397 35.1235C-0.0351987 34.8147 -0.00188076 34.4903 0.132399 34.2029C0.266679 33.9154 0.49406 33.6816 0.77773 33.5394C2.72511 32.5643 2.81811 30.7297 2.81811 28.4582V18.7354C2.8181 15.5183 4.04075 12.4215 6.23844 10.072C8.43614 7.72259 11.4446 6.29619 14.6545 6.08172C14.1002 5.92401 13.6008 5.61489 13.2124 5.18906C12.824 4.76323 12.562 4.23756 12.4559 3.67108C12.3497 3.1046 12.4035 2.51974 12.6114 1.98217C12.8192 1.4446 13.1728 0.975608 13.6324 0.627862C14.092 0.280116 14.6395 0.0673837 15.2133 0.0135529C15.7871 -0.040278 16.3646 0.0669242 16.8808 0.323122C17.3971 0.579319 17.8317 0.974367 18.1359 1.4639C18.4401 1.95344 18.6018 2.51809 18.6028 3.09443ZM15.5 8.87174C12.884 8.87174 10.3751 9.91094 8.52531 11.7607C6.67551 13.6105 5.6363 16.1194 5.6363 18.7354V28.5991C5.6363 29.856 5.63912 31.7217 4.79084 33.3901H26.2092C25.3609 31.7217 25.3637 29.856 25.3637 28.5991V18.7354C25.3637 16.1194 24.3245 13.6105 22.4747 11.7607C20.6249 9.91094 18.116 8.87174 15.5 8.87174Z" fill="white"/>
</svg>
